<?xml version="1.0" encoding="UTF-8" standalone="no"?>
<svg xmlns="http://www.w3.org/2000/svg" width="300" height="300" version="1.1">
    <defs>
        <pattern id="designdots" width="49.9" height="49.9" patternUnits="userSpaceOnUse">
            <path d="M0,0 l49.9,0 M0,0 l0,49.9" stroke-dasharray="5,10" style="stroke:#000;stroke-width:3" />
        </pattern>
        <pattern id="diagonalhatch" width="4" height="4" patternTransform="scale(5,5)" patternUnits="userSpaceOnUse">
            <rect style="fill:#fff" x="0" y="0" width="4" height="4" />
            <path d="M-1,1 l2,-2 M0,4 l4,-4 M3,5 l2,-2" style="stroke:#000;stroke-width:1" />
        </pattern>
        <pattern id="diagonalhatch2" width="4" height="4" patternTransform="scale(-5,5)" patternUnits="userSpaceOnUse">
            <rect style="fill:#fff" x="0" y="0" width="4" height="4" />
            <path d="M-1,1 l2,-2 M0,4 l4,-4 M3,5 l2,-2" style="stroke:#000;stroke-width:1" />
        </pattern>
        <pattern id="verthatch" width="12" height="12" patternUnits="userSpaceOnUse">
            <rect style="fill:#fff" x="0" y="0" width="12" height="12" />
            <path d="M9,0 l0,12" style="stroke:#000;stroke-width:4" />
        </pattern>
        <pattern id="horizhatch" width="12" height="12" patternUnits="userSpaceOnUse">
            <rect style="fill:#fff" x="0" y="0" width="12" height="12" />
            <path d="M0,9 l12,0" style="stroke:#000;stroke-width:4" />
        </pattern>
    </defs>

    <!-- grid -->
    <rect style="fill:url(#designdots);" width="300" height="300" x="0" y="0" />

    <!-- content -->
    <rect style="fill:url(#diagonalhatch);stroke:#000;stroke-width:2" width="200" height="50" x="100" y="100" />
    <rect style="fill:url(#diagonalhatch2);stroke:#000;stroke-width:2" width="100" height="100" x="150" y="150" />
    <rect style="fill:url(#horizhatch);stroke:#000;stroke-width:2" width="50" height="150" x="0" y="100" />
</svg>
