<svg xmlns="http://www.w3.org/2000/svg" xmlns:xlink="http://www.w3.org/1999/xlink" xmlns:lucid="lucid" width="933" height="1047.11"><g transform="translate(0 0)" lucid:page-tab-id="0_0"><path d="M585 29h335c2.76 0 5 2.24 5 5v1004c0 2.76-2.24 5-5 5H10c-2.76 0-5-2.24-5-5V8c0-2.76 2.24-5 5-5h542c2.76 0 6.64 1.52 8.66 3.4zM5 29h580" stroke="#000" stroke-width="2" fill="#fff"/><use xlink:href="#a" transform="matrix(1,0,0,1,13,3) translate(0 16.6)"/><use xlink:href="#b" transform="matrix(1,0,0,1,17,37) translate(0 502.59999999999997)"/><path d="M20 45c0-2.76 2.24-5 5-5h385.06c2.76 0 5 2.24 5 5v730c0 2.76-2.24 5-5 5H25c-2.76 0-5-2.24-5-5z" stroke="#000" stroke-width="2" fill="#fff"/><path d="M405.06 50h-15v20h15z" stroke="#000" fill="#fff"/><path d="M395.06 53.33h-10v3.34h10zm0 10h-10v3.34h10z" stroke="#000" fill="#fff"/><use xlink:href="#c" transform="matrix(1,0,0,1,20,40) translate(118.03000000000002 19.41)"/><use xlink:href="#d" transform="matrix(1,0,0,1,20,40) translate(106.305 41.01)"/><use xlink:href="#e" transform="matrix(1,0,0,1,20,40) translate(147.905 41.01)"/><use xlink:href="#f" transform="matrix(1,0,0,1,20,40) translate(226.70499999999998 41.01)"/><path d="M55.06 125c0-2.76 2.24-5 5-5h310c2.76 0 5 2.24 5 5v50c0 2.76-2.24 5-5 5h-310c-2.76 0-5-2.24-5-5z" stroke="#000" stroke-width="2" fill="#fff"/><path d="M365.06 130h-15v20h15z" stroke="#000" fill="#fff"/><path d="M355.06 133.33h-10v3.34h10zm0 10h-10v3.34h10z" stroke="#000" fill="#fff"/><use xlink:href="#g" transform="matrix(1,0,0,1,55.05924610976069,120) translate(82.03 19.41)"/><use xlink:href="#h" transform="matrix(1,0,0,1,55.05924610976069,120) translate(68.105 41.01)"/><use xlink:href="#i" transform="matrix(1,0,0,1,55.05924610976069,120) translate(179.90500000000003 41.01)"/><path d="M55.06 205c0-2.76 2.24-5 5-5h310c2.76 0 5 2.24 5 5v50c0 2.76-2.24 5-5 5h-310c-2.76 0-5-2.24-5-5z" stroke="#000" stroke-width="2" fill="#fff"/><path d="M365.06 210h-15v20h15z" stroke="#000" fill="#fff"/><path d="M355.06 213.33h-10v3.34h10zm0 10h-10v3.34h10z" stroke="#000" fill="#fff"/><use xlink:href="#g" transform="matrix(1,0,0,1,55.05924610976069,200) translate(82.03 19.41)"/><use xlink:href="#j" transform="matrix(1,0,0,1,55.05924610976069,200) translate(69.13000000000001 41.01)"/><use xlink:href="#k" transform="matrix(1,0,0,1,55.05924610976069,200) translate(102.98 41.01)"/><use xlink:href="#i" transform="matrix(1,0,0,1,55.05924610976069,200) translate(178.88 41.01)"/><path d="M55.06 285.36c0-2.76 2.24-5 5-5h310c2.76 0 5 2.24 5 5v50c0 2.77-2.24 5-5 5h-310c-2.76 0-5-2.23-5-5z" stroke="#000" stroke-width="2" fill="#fff"/><path d="M365.06 290.36h-15v20h15z" stroke="#000" fill="#fff"/><path d="M355.06 293.7h-10v3.33h10zm0 10h-10v3.33h10z" stroke="#000" fill="#fff"/><use xlink:href="#g" transform="matrix(1,0,0,1,55.05924610976069,280.36415165244864) translate(82.03 19.41)"/><use xlink:href="#l" transform="matrix(1,0,0,1,55.05924610976069,280.36415165244864) translate(34.65499999999998 41.01)"/><use xlink:href="#m" transform="matrix(1,0,0,1,55.05924610976069,280.36415165244864) translate(129.555 41.01)"/><use xlink:href="#i" transform="matrix(1,0,0,1,55.05924610976069,280.36415165244864) translate(213.35500000000002 41.01)"/><path d="M55.06 365.73c0-2.76 2.24-5 5-5h310c2.76 0 5 2.24 5 5v50c0 2.76-2.24 5-5 5h-310c-2.76 0-5-2.24-5-5z" stroke="#000" stroke-width="2" fill="#fff"/><path d="M365.06 370.73h-15v20h15z" stroke="#000" fill="#fff"/><path d="M355.06 374.06h-10v3.33h10zm0 10h-10v3.33h10z" stroke="#000" fill="#fff"/><use xlink:href="#g" transform="matrix(1,0,0,1,55.05924610976069,360.7283033048973) translate(82.03 19.41)"/><use xlink:href="#n" transform="matrix(1,0,0,1,55.05924610976069,360.7283033048973) translate(76.555 41.01)"/><use xlink:href="#o" transform="matrix(1,0,0,1,55.05924610976069,360.7283033048973) translate(118.505 41.01)"/><use xlink:href="#i" transform="matrix(1,0,0,1,55.05924610976069,360.7283033048973) translate(171.45499999999998 41.01)"/><path d="M55.06 446.1c0-2.77 2.24-5 5-5h310c2.76 0 5 2.23 5 5v50c0 2.75-2.24 5-5 5h-310c-2.76 0-5-2.25-5-5z" stroke="#000" stroke-width="2" fill="#fff"/><path d="M365.06 451.1h-15v20h15z" stroke="#000" fill="#fff"/><path d="M355.06 454.43h-10v3.33h10zm0 10h-10v3.33h10z" stroke="#000" fill="#fff"/><use xlink:href="#g" transform="matrix(1,0,0,1,55.05924610976069,441.092454957346) translate(82.03 19.41)"/><use xlink:href="#p" transform="matrix(1,0,0,1,55.05924610976069,441.092454957346) translate(95.555 41.01)"/><use xlink:href="#i" transform="matrix(1,0,0,1,55.05924610976069,441.092454957346) translate(152.455 41.01)"/><path d="M55.06 526.46c0-2.76 2.24-5 5-5h310c2.76 0 5 2.24 5 5v50c0 2.76-2.24 5-5 5h-310c-2.76 0-5-2.24-5-5z" stroke="#000" stroke-width="2" fill="#fff"/><path d="M365.06 531.46h-15v20h15z" stroke="#000" fill="#fff"/><path d="M355.06 534.8h-10v3.32h10zm0 10h-10v3.32h10z" stroke="#000" fill="#fff"/><use xlink:href="#g" transform="matrix(1,0,0,1,55.05924610976069,521.4566066097946) translate(82.03 19.41)"/><use xlink:href="#q" transform="matrix(1,0,0,1,55.05924610976069,521.4566066097946) translate(75.555 41.01)"/><use xlink:href="#r" transform="matrix(1,0,0,1,55.05924610976069,521.4566066097946) translate(117.555 41.01)"/><use xlink:href="#i" transform="matrix(1,0,0,1,55.05924610976069,521.4566066097946) translate(172.45499999999998 41.01)"/><path d="M55.06 605c0-2.76 2.24-5 5-5h310c2.76 0 5 2.24 5 5v50c0 2.76-2.24 5-5 5h-310c-2.76 0-5-2.24-5-5z" stroke="#000" stroke-width="2" fill="#fff"/><path d="M365.06 610h-15v20h15z" stroke="#000" fill="#fff"/><path d="M355.06 613.33h-10v3.34h10zm0 10h-10v3.34h10z" stroke="#000" fill="#fff"/><use xlink:href="#g" transform="matrix(1,0,0,1,55.05924610976069,600) translate(82.03 19.41)"/><use xlink:href="#s" transform="matrix(1,0,0,1,55.05924610976069,600) translate(96.555 41.01)"/><use xlink:href="#i" transform="matrix(1,0,0,1,55.05924610976069,600) translate(151.455 41.01)"/><path d="M55.06 683.54c0-2.76 2.24-5 5-5h310c2.76 0 5 2.24 5 5v50c0 2.76-2.24 5-5 5h-310c-2.76 0-5-2.24-5-5z" stroke="#000" stroke-width="2" fill="#fff"/><path d="M365.06 688.54h-15v20h15z" stroke="#000" fill="#fff"/><path d="M355.06 691.88h-10v3.33h10zm0 10h-10v3.33h10z" stroke="#000" fill="#fff"/><use xlink:href="#g" transform="matrix(1,0,0,1,55.05924610976069,678.5433933902054) translate(82.03 19.41)"/><use xlink:href="#q" transform="matrix(1,0,0,1,55.05924610976069,678.5433933902054) translate(71.75500000000001 41.01)"/><use xlink:href="#t" transform="matrix(1,0,0,1,55.05924610976069,678.5433933902054) translate(113.755 41.01)"/><use xlink:href="#i" transform="matrix(1,0,0,1,55.05924610976069,678.5433933902054) translate(176.255 41.01)"/><path d="M680 205c0-2.76 2.24-5 5-5h210c2.76 0 5 2.24 5 5v50c0 2.76-2.24 5-5 5H685c-2.76 0-5-2.24-5-5z" stroke="#000" stroke-width="2" fill="#fff"/><path d="M890 210h-15v20h15z" stroke="#000" fill="#fff"/><path d="M880 213.33h-10v3.34h10zm0 10h-10v3.34h10z" stroke="#000" fill="#fff"/><use xlink:href="#u" transform="matrix(1,0,0,1,680,200) translate(46.55499999999999 19.41)"/><use xlink:href="#v" transform="matrix(1,0,0,1,680,200) translate(30.154999999999994 41.01)"/><use xlink:href="#w" transform="matrix(1,0,0,1,680,200) translate(99.955 41.01)"/><path d="M680 325c0-2.76 2.24-5 5-5h210c2.76 0 5 2.24 5 5v50c0 2.76-2.24 5-5 5H685c-2.76 0-5-2.24-5-5z" stroke="#000" stroke-width="2" fill="#fff"/><path d="M890 330h-15v20h15z" stroke="#000" fill="#fff"/><path d="M880 333.33h-10v3.34h10zm0 10h-10v3.34h10z" stroke="#000" fill="#fff"/><use xlink:href="#u" transform="matrix(1,0,0,1,680,320) translate(46.55499999999999 19.41)"/><use xlink:href="#n" transform="matrix(1,0,0,1,680,320) translate(44.07999999999999 41.01)"/><use xlink:href="#w" transform="matrix(1,0,0,1,680,320) translate(86.03 41.01)"/><path d="M680 476c0-2.76 2.24-5 5-5h210c2.76 0 5 2.24 5 5v50c0 2.76-2.24 5-5 5H685c-2.76 0-5-2.24-5-5z" stroke="#000" stroke-width="2" fill="#fff"/><path d="M890 481h-15v20h15z" stroke="#000" fill="#fff"/><path d="M880 484.33h-10v3.34h10zm0 10h-10v3.34h10z" stroke="#000" fill="#fff"/><use xlink:href="#u" transform="matrix(1,0,0,1,680,471) translate(46.55499999999999 19.41)"/><use xlink:href="#p" transform="matrix(1,0,0,1,680,471) translate(36.605 41.01)"/><use xlink:href="#w" transform="matrix(1,0,0,1,680,471) translate(93.505 41.01)"/><path d="M680 576.54c0-2.76 2.24-5 5-5h210c2.76 0 5 2.24 5 5v50c0 2.76-2.24 5-5 5H685c-2.76 0-5-2.24-5-5z" stroke="#000" stroke-width="2" fill="#fff"/><path d="M890 581.54h-15v20h15z" stroke="#000" fill="#fff"/><path d="M880 584.88h-10v3.33h10zm0 10h-10v3.33h10z" stroke="#000" fill="#fff"/><use xlink:href="#u" transform="matrix(1,0,0,1,680,571.5433933902054) translate(46.55499999999999 19.41)"/><use xlink:href="#s" transform="matrix(1,0,0,1,680,571.5433933902054) translate(37.605 41.01)"/><use xlink:href="#w" transform="matrix(1,0,0,1,680,571.5433933902054) translate(92.505 41.01)"/><path d="M680 653c0-2.76 2.24-5 5-5h210c2.76 0 5 2.24 5 5v110c0 2.76-2.24 5-5 5H685c-2.76 0-5-2.24-5-5z" stroke="#000" stroke-width="2" fill="#fff"/><path d="M890 658h-15v20h15z" stroke="#000" fill="#fff"/><path d="M880 661.33h-10v3.34h10zm0 10h-10v3.34h10z" stroke="#000" fill="#fff"/><use xlink:href="#x" transform="matrix(1,0,0,1,680,648) translate(42.529999999999994 40.65)"/><use xlink:href="#y" transform="matrix(1,0,0,1,680,648) translate(31.82999999999999 62.25)"/><use xlink:href="#z" transform="matrix(1,0,0,1,680,648) translate(114.73 62.25)"/><use xlink:href="#A" transform="matrix(1,0,0,1,680,648) translate(82.03 83.85000000000001)"/><path d="M20 926c0-2.76 2.24-5 5-5h210c2.76 0 5 2.24 5 5v89c0 2.76-2.24 5-5 5H25c-2.76 0-5-2.24-5-5z" stroke="#000" stroke-width="2" fill="#fff"/><path d="M230 931h-15v20h15z" stroke="#000" fill="#fff"/><path d="M220 934.33h-10v3.34h10zm0 10h-10v3.34h10z" stroke="#000" fill="#fff"/><use xlink:href="#u" transform="matrix(1,0,0,1,20.000000000000014,921) translate(45.55499999999999 42.24375)"/><use xlink:href="#s" transform="matrix(1,0,0,1,20.000000000000014,921) translate(52.605 63.84375)"/><use xlink:href="#w" transform="matrix(1,0,0,1,20.000000000000014,921) translate(107.505 63.84375)"/><path d="M680 926c0-2.76 2.24-5 5-5h210c2.76 0 5 2.24 5 5v89c0 2.76-2.24 5-5 5H685c-2.76 0-5-2.24-5-5z" stroke="#000" stroke-width="2" fill="#fff"/><path d="M890 931h-15v20h15z" stroke="#000" fill="#fff"/><path d="M880 934.33h-10v3.34h10zm0 10h-10v3.34h10z" stroke="#000" fill="#fff"/><use xlink:href="#u" transform="matrix(1,0,0,1,680,921) translate(45.55499999999999 42.24375)"/><use xlink:href="#B" transform="matrix(1,0,0,1,680,921) translate(36.15499999999998 63.84375)"/><use xlink:href="#C" transform="matrix(1,0,0,1,680,921) translate(114.955 63.84375)"/><path d="M650.3 231h-7.7v-2h7.7zm15.36 0h-7.68v-2h7.68zm11.52 0h-3.84v-2h3.84zm-42.25 0h-5.56v-2h5.56zM490.67 230H490v-2h.67z"/><path d="M679 230l-18.67 11.04-1.02-1.72 15.77-9.32-15.76-9.32 1.03-1.72z"/><use xlink:href="#D" transform="matrix(1,0,0,1,490.66635991820044,218.2) translate(0 14.4)"/><use xlink:href="#E" transform="matrix(1,0,0,1,490.66635991820044,218.2) translate(69.8 14.4)"/><path d="M490 229h-11M445 229h-5" stroke="#000" stroke-width="2" fill="none"/><path d="M465 243c-7.73 0-14-6.27-14-14s6.27-14 14-14 14 6.27 14 14-6.27 14-14 14z" stroke="#000" stroke-width="2" fill="#fff"/><path d="M465 209c-11.05 0-20 8.95-20 20s8.95 20 20 20" stroke="#000" stroke-width="2" fill="none"/><path d="M490 229c0 .44-.36.8-.8.8h-9.4c-.44 0-.8-.36-.8-.8 0-.44.36-.8.8-.8h9.4c.44 0 .8.36.8.8z" fill="none"/><path d="M439 230h-3.82m-7.64 0h-7.64m-7.64 0h-7.64m-7.64 0h-7.64m-7.64 0h-3.82" stroke="#000" stroke-width="2" fill="none"/><path d="M440 230h3v1h-4.03v-2H440z"/><path d="M395.24 219.82L378.02 230l17.22 10.18M439 310.36h-3.82m-7.64 0h-7.64m-7.64 0h-7.64m-7.64 0h-7.64m-7.64 0h-3.82" stroke="#000" stroke-width="2" fill="none"/><path d="M440 311.36h-1.03v-2H440z"/><path d="M395.24 300.18l-17.22 10.18 17.22 10.2M439 390.73h-3.87m-7.74 0h-7.76m-7.74 0H404.26m-7.54 0h-7.53m-7.55 0h-3.77" stroke="#000" stroke-width="2" fill="none"/><path d="M440 391.73h-1.03v-2H440z"/><path d="M395.24 380.55l-17.22 10.18 17.22 10.18M490 310.36h-11M445 310.36h-5" stroke="#000" stroke-width="2" fill="none"/><path d="M465 324.36c-7.73 0-14-6.26-14-14 0-7.73 6.27-14 14-14s14 6.27 14 14c0 7.74-6.27 14-14 14z" stroke="#000" stroke-width="2" fill="#fff"/><path d="M465 290.36c-11.05 0-20 8.96-20 20 0 11.05 8.95 20 20 20" stroke="#000" stroke-width="2" fill="none"/><path d="M490 310.36c0 .45-.36.8-.8.8h-9.4c-.44 0-.8-.35-.8-.8 0-.44.36-.8.8-.8h9.4c.44 0 .8.36.8.8z" fill="none"/><path d="M490 390.73h-11M445 390.73h-5" stroke="#000" stroke-width="2" fill="none"/><path d="M465 404.73c-7.73 0-14-6.27-14-14s6.27-14 14-14 14 6.27 14 14-6.27 14-14 14z" stroke="#000" stroke-width="2" fill="#fff"/><path d="M465 370.73c-11.05 0-20 8.95-20 20 0 11.04 8.95 20 20 20" stroke="#000" stroke-width="2" fill="none"/><path d="M490 390.73c0 .44-.36.8-.8.8h-9.4c-.44 0-.8-.36-.8-.8 0-.44.36-.8.8-.8h9.4c.44 0 .8.36.8.8z" fill="none"/><path d="M585.5 329.7l.82 2.5 2 1.46 1.26.2h4.3v2h-4.46l-1.9-.3-2.9-2.13-1.12-3.4v-3.8h2zm25.92 6.16h-8.77v-2h8.77zm17.54 0h-8.77v-2h8.76zm17.53 0h-8.77v-2h8.76zm17.53 0h-8.77v-2h8.77zm13.15 0h-4.38v-2h4.38zm-182.5-24.5H491v-2h3.7zm14.5 0h-7.12v-2h7.13z"/><path d="M491.03 311.36H490v-2h1.03zM679 334.86l-18.67 11.05-1.02-1.72 15.77-9.32-15.76-9.32 1.03-1.72z"/><use xlink:href="#F" transform="matrix(1,0,0,1,509.1914343110425,299.5641516524487) translate(0 14.4)"/><use xlink:href="#G" transform="matrix(1,0,0,1,509.1914343110425,299.5641516524487) translate(94.9 14.4)"/><path d="M494.7 391.73H491v-2h3.7zm14.74 0h-7.38v-2h7.38zm14.75 0h-7.4v-2h7.4zm11.93 0h-4.57v-2h4.57zm57.75-25.6h-4.3l-1.26.2-2 1.47-.82 2.5v3.73h-2v-4.05l1.1-3.4 2.92-2.14 1.9-.3h4.46zm17.54 0h-8.77v-2h8.77zm17.54 0h-8.77v-2h8.76zm17.53 0h-8.77v-2h8.76zm17.53 0h-8.77v-2h8.77zm13.15 0h-4.38v-2h4.38z"/><path d="M491.03 391.73H490v-2h1.03zM679 365.14l-18.67 11.04-1.02-1.72 15.77-9.32-15.76-9.32 1.03-1.73z"/><use xlink:href="#H" transform="matrix(1,0,0,1,536.1299813853601,379.9283033048973) translate(0 14.4)"/><use xlink:href="#G" transform="matrix(1,0,0,1,536.1299813853601,379.9283033048973) translate(41.95 14.4)"/><path d="M495.25 391.73H491v-2h4.25zm17 0h-8.5v-2h8.5zm16.87 0h-8.37v-2h8.37z"/><path d="M491.03 391.73H490v-2h1.03z"/><path/><path/><path d="M492.37 603.18h-3.94v-2h3.94zm15.74 0h-7.86v-2h7.87zm9.5 0h-1.62v-2h1.6zm116.66-.64h-7.8v-2h7.8zm15.6 0h-7.8v-2h7.8zm15.62 0h-7.8v-2h7.8zm11.7 0h-3.9v-2h3.9z"/><path d="M488.46 603.18h-1.03v-2h1.03zM679 601.54l-18.67 11.05-1.02-1.74 15.77-9.32-15.76-9.32 1.03-1.72z"/><g><use xlink:href="#I" transform="matrix(1,0,0,1,517.5865770626922,591.3787264489445) translate(0 14.4)"/><use xlink:href="#G" transform="matrix(1,0,0,1,517.5865770626922,591.3787264489445) translate(54.900000000000006 14.4)"/></g><path d="M464.8 473l-.56-1.35-1.35-.56h-4.26m-8.5 0h-8.5m-8.5 0h-8.5m-8.5 0h-8.5m-8.5 0h-8.5m-8.5 0h-4.26" stroke="#000" stroke-width="2" fill="none"/><path d="M463.8 474v-1.03h2V474z"/><path d="M395.24 460.9l-17.22 10.2 17.22 10.17" stroke="#000" stroke-width="2" fill="none"/><path d="M492.94 502.95h-3.9v-2h3.9zm15.67 0h-7.82v-2h7.83zm8.47 0h-.62v-2h.62zm117.4-.95h-7.77v-2h7.77zm15.53 0h-7.76v-2H650zm15.53 0h-7.76v-2h7.76zm11.65 0h-3.88v-2h3.88z"/><path d="M489.05 502.95h-1.02v-2h1.02zM679 501l-18.67 11.04-1.02-1.72 15.77-9.32-15.76-9.32 1.03-1.72z"/><g><use xlink:href="#J" transform="matrix(1,0,0,1,517.0650031901639,491.1543595873554) translate(0 14.4)"/><use xlink:href="#G" transform="matrix(1,0,0,1,517.0650031901639,491.1543595873554) translate(56.900000000000006 14.4)"/></g><g><path d="M487.43 602.18h-7.7m-30.75 0c0-8.5 6.9-15.38 15.38-15.38 8.5 0 15.38 6.88 15.38 15.38s-6.9 15.38-15.38 15.38c-8.5 0-15.38-6.9-15.38-15.38z" stroke="#000" stroke-width="2" fill="#fff"/><path d="M487.43 602.8h-7.7v-1.24h7.7z" fill="none"/></g><path d="M464.8 573v-1.45l-.96-2.95-2.46-1.8-1.58-.25h-4.1m-8.2 0h-8.18m-8.2 0h-8.18m-8.2 0h-8.2m-8.18 0h-8.2m-8.2 0h-4.08" stroke="#000" stroke-width="2" fill="none"/><path d="M463.8 574v-1.03h2V574z"/><path d="M395.24 556.37l-17.22 10.18 17.22 10.18" stroke="#000" stroke-width="2" fill="none"/><g fill="none"><path d="M464.8 581.7V574M446 597.07c0-8.5 8.42-15.38 18.8-15.38s18.8 6.88 18.8 15.37" stroke="#000" stroke-width="2"/><path d="M446 597.07c0-8.5 8.42-15.38 18.8-15.38s18.8 6.88 18.8 15.37z"/><path d="M464.8 581.7c-.4 0-.75-.35-.75-.76v-6.2c0-.4.34-.74.75-.74.42 0 .75.34.75.75v6.2c0 .4-.33.74-.75.74z"/></g><path d="M464.8 629.7l-.1.2-.2.1h-4.32m-8.67 0h-8.65m-8.66 0h-8.68m-8.66 0h-8.66m-8.67 0h-8.66m-8.66 0h-4.32" stroke="#000" stroke-width="2" fill="none"/><path d="M465.8 629.73h-2v-1.02h2v-3z"/><path d="M395.24 619.82L378.02 630l17.22 10.18" stroke="#000" stroke-width="2" fill="none"/><g fill="none"><path d="M464.8 621.02v7.7m18.8-23.08c0 8.5-8.42 15.38-18.8 15.38s-18.8-6.9-18.8-15.38" stroke="#000" stroke-width="2"/><path d="M483.6 605.64c0 8.5-8.42 15.38-18.8 15.38s-18.8-6.9-18.8-15.38zM464.8 621.02c.42 0 .75.33.75.75v6.18c0 .42-.33.76-.75.76-.4 0-.75-.33-.75-.75v-6.18c0-.42.34-.75.75-.75z"/></g><g><path d="M488.03 501.95h-7.7m-30.76 0c0-8.5 6.9-15.38 15.4-15.38 8.48 0 15.37 6.9 15.37 15.38 0 8.5-6.9 15.4-15.38 15.4-8.5 0-15.4-6.9-15.4-15.4z" stroke="#000" stroke-width="2" fill="#fff"/><path d="M488.03 502.57h-7.7v-1.23h7.7z" fill="none"/></g><g fill="none"><path d="M464.8 481.7V474M446 497.07c0-8.5 8.42-15.38 18.8-15.38s18.8 6.88 18.8 15.37" stroke="#000" stroke-width="2"/><path d="M446 497.07c0-8.5 8.42-15.38 18.8-15.38s18.8 6.88 18.8 15.37z"/><path d="M464.8 481.7c-.4 0-.75-.35-.75-.76v-6.2c0-.4.34-.74.75-.74.42 0 .75.34.75.75v6.2c0 .4-.33.74-.75.74z"/></g><g fill="none"><path d="M464.8 521.62v7.7m18.8-23.08c0 8.5-8.42 15.38-18.8 15.38s-18.8-6.88-18.8-15.38" stroke="#000" stroke-width="2"/><path d="M483.6 506.24c0 8.5-8.42 15.38-18.8 15.38s-18.8-6.88-18.8-15.38zM464.8 521.62c.42 0 .75.34.75.76v6.18c0 .42-.33.75-.75.75-.4 0-.75-.32-.75-.74v-6.18c0-.42.34-.76.75-.76z"/></g><path d="M464.8 530.3v1.06l-.96 2.96-2.46 1.8-1.58.24h-4.1m-8.2 0h-8.18m-8.2 0h-8.18m-8.2 0h-8.2m-8.18 0h-8.2m-8.2 0h-4.08" stroke="#000" stroke-width="2" fill="none"/><path d="M465.8 530.34h-2v-1.03h2v-3z"/><path d="M395.24 526.18l-17.22 10.18 17.22 10.18" stroke="#000" stroke-width="2" fill="none"/><g><path d="M488 708h-11M443 708h-5" stroke="#000" stroke-width="2" fill="none"/><path d="M463 722c-7.73 0-14-6.27-14-14s6.27-14 14-14 14 6.27 14 14-6.27 14-14 14z" stroke="#000" stroke-width="2" fill="#fff"/><path d="M463 688c-11.05 0-20 8.95-20 20s8.95 20 20 20" stroke="#000" stroke-width="2" fill="none"/><path d="M488 708c0 .44-.36.8-.8.8h-9.4c-.44 0-.8-.36-.8-.8 0-.44.36-.8.8-.8h9.4c.44 0 .8.36.8.8z" fill="none"/></g><path d="M492.92 709H489v-2h3.92zm10.72 0h-2.88v-2h2.88zm146.1 0h-7.84v-2h7.84zm15.68 0h-7.84v-2h7.84zm11.76 0h-3.92v-2h3.92z"/><path d="M489.03 709H488v-2h1.03zM679 708l-18.67 11.04-1.02-1.72 15.77-9.32-15.76-9.32 1.03-1.72z"/><g><use xlink:href="#K" transform="matrix(1,0,0,1,503.64452325407615,697.2) translate(0 14.4)"/><use xlink:href="#G" transform="matrix(1,0,0,1,503.64452325407615,697.2) translate(82.9 14.4)"/></g><path d="M437 708.54h-3.7m-7.38 0h-7.4m-7.4 0h-7.38m-7.4 0h-7.38m-7.4 0h-3.68" stroke="#000" stroke-width="2" fill="none"/><path/><path d="M395.24 698.36l-17.22 10.18 17.22 10.18" stroke="#000" stroke-width="2" fill="none"/><g><path d="M790 864v-11M790 819v-5" stroke="#000" stroke-width="2" fill="none"/><path d="M776 839c0-7.73 6.27-14 14-14s14 6.27 14 14-6.27 14-14 14-14-6.27-14-14z" stroke="#000" stroke-width="2" fill="#fff"/><path d="M810 839c0-11.05-8.95-20-20-20s-20 8.95-20 20" stroke="#000" stroke-width="2" fill="none"/><path d="M790 864c-.44 0-.8-.36-.8-.8v-9.4c0-.44.36-.8.8-.8.44 0 .8.36.8.8v9.4c0 .44-.36.8-.8.8z" fill="none"/></g><path d="M790 813v-3.52m0-7.03v-7.03m0-7.03v-7.04m0-7.03v-3.5" stroke="#000" stroke-width="2" fill="none"/><path d="M789 814v-1.03h2V814z"/><path d="M800.18 788.18L790 770.96l-10.18 17.22" stroke="#000" stroke-width="2" fill="none"/><path d="M791 918.18h-2v-4.43h2zm0-13.3h-2v-8.86h2zm0-37.7h-2V865h2z"/><path d="M791 865.03h-2V864h2zM801.04 901.33L790 920l-11.04-18.67 1.72-1.02 9.32 15.77 9.32-15.76z"/><g><use xlink:href="#L" transform="matrix(1,0,0,1,694.2,867.1757843220755) translate(0 14.4)"/><use xlink:href="#M" transform="matrix(1,0,0,1,694.2,867.1757843220755) translate(78.80000000000001 14.4)"/><use xlink:href="#G" transform="matrix(1,0,0,1,694.2,867.1757843220755) translate(143.70000000000002 14.4)"/></g><g><path d="M119 869v-11M119 824v-5" stroke="#000" stroke-width="2" fill="none"/><path d="M105 844c0-7.73 6.27-14 14-14s14 6.27 14 14-6.27 14-14 14-14-6.27-14-14z" stroke="#000" stroke-width="2" fill="#fff"/><path d="M139 844c0-11.05-8.95-20-20-20s-20 8.95-20 20" stroke="#000" stroke-width="2" fill="none"/><path d="M119 869c-.44 0-.8-.36-.8-.8v-9.4c0-.44.36-.8.8-.8.44 0 .8.36.8.8v9.4c0 .44-.36.8-.8.8z" fill="none"/></g><path d="M119 818v-4.44m0-8.87v-4.45l-.07-.18-.18-.07-.18-.07-.07-.18v-4.23m0-8.47v-4.23" stroke="#000" stroke-width="2" fill="none"/><path d="M118 819v-1.03h2V819z"/><path d="M128.68 800.18l-10.18-17.22-10.18 17.22" stroke="#000" stroke-width="2" fill="none"/><path d="M120.14 918.18h-2v-5.9h2zm-.14-24.25l.12.1.02 6.44h-2l-.02-5.45-.12-.1v-2.5h2zm0-23.1h-2V870h2z"/><path d="M120 870.03h-2V869h2zM130.18 901.33L119.14 920l-11.04-18.67 1.72-1.02 9.32 15.77 9.32-15.76z"/><g><use xlink:href="#I" transform="matrix(1,0,0,1,67.6,870.8186766066827) translate(0 14.4)"/><use xlink:href="#G" transform="matrix(1,0,0,1,67.6,870.8186766066827) translate(54.900000000000006 14.4)"/></g><defs><path d="M233-177c-1 41-23 64-60 70L243 0h-38l-65-103H63V0H30v-248c88 3 205-21 203 71zM63-129c60-2 137 13 137-47 0-61-80-42-137-45v92" id="N"/><path d="M266 0h-40l-56-210L115 0H75L2-248h35L96-30l15-64 43-154h32l59 218 59-218h35" id="O"/><path d="M240 0l2-218c-23 76-54 145-80 218h-23L58-218 59 0H30v-248h44l77 211c21-75 51-140 76-211h43V0h-30" id="P"/><path d="M30-248c87 1 191-15 191 75 0 78-77 80-158 76V0H30v-248zm33 125c57 0 124 11 124-50 0-59-68-47-124-48v98" id="Q"/><path d="M205 0l-28-72H64L36 0H1l101-248h38L239 0h-34zm-38-99l-47-123c-12 45-31 82-46 123h93" id="R"/><g id="a"><use transform="matrix(0.05,0,0,0.05,0,0)" xlink:href="#N"/><use transform="matrix(0.05,0,0,0.05,12.600000000000001,0)" xlink:href="#O"/><use transform="matrix(0.05,0,0,0.05,29.55,0)" xlink:href="#P"/><use transform="matrix(0.05,0,0,0.05,44.5,0)" xlink:href="#Q"/><use transform="matrix(0.05,0,0,0.05,55.150000000000006,0)" xlink:href="#R"/></g><path d="M59-47c-2 24 18 29 38 22v24C64 9 27 4 27-40v-127H5v-23h24l9-43h21v43h35v23H59v120" id="S"/><path d="M114-163C36-179 61-72 57 0H25l-1-190h30c1 12-1 29 2 39 6-27 23-49 58-41v29" id="T"/><path d="M24-231v-30h32v30H24zM24 0v-190h32V0H24" id="U"/><path d="M115-194c53 0 69 39 70 98 0 66-23 100-70 100C84 3 66-7 56-30L54 0H23l1-261h32v101c10-23 28-34 59-34zm-8 174c40 0 45-34 45-75 0-40-5-75-45-74-42 0-51 32-51 76 0 43 10 73 51 73" id="V"/><path d="M84 4C-5 8 30-112 23-190h32v120c0 31 7 50 39 49 72-2 45-101 50-169h31l1 190h-30c-1-10 1-25-2-33-11 22-28 36-60 37" id="W"/><path d="M100-194c63 0 86 42 84 106H49c0 40 14 67 53 68 26 1 43-12 49-29l28 8c-11 28-37 45-77 45C44 4 14-33 15-96c1-61 26-98 85-98zm52 81c6-60-76-77-97-28-3 7-6 17-6 28h103" id="X"/><path d="M135-143c-3-34-86-38-87 0 15 53 115 12 119 90S17 21 10-45l28-5c4 36 97 45 98 0-10-56-113-15-118-90-4-57 82-63 122-42 12 7 21 19 24 35" id="Y"/><g id="b"><use transform="matrix(0.05,0,0,0.05,0,0)" xlink:href="#R"/><use transform="matrix(0.05,0,0,0.05,12,0)" xlink:href="#S"/><use transform="matrix(0.05,0,0,0.05,17,0)" xlink:href="#S"/><use transform="matrix(0.05,0,0,0.05,22,0)" xlink:href="#T"/><use transform="matrix(0.05,0,0,0.05,27.950000000000003,0)" xlink:href="#U"/><use transform="matrix(0.05,0,0,0.05,31.899999999999995,0)" xlink:href="#V"/><use transform="matrix(0.05,0,0,0.05,41.9,0)" xlink:href="#W"/><use transform="matrix(0.05,0,0,0.05,51.900000000000006,0)" xlink:href="#S"/><use transform="matrix(0.05,0,0,0.05,56.900000000000006,0)" xlink:href="#X"/><use transform="matrix(0.05,0,0,0.05,66.9,0)" xlink:href="#Y"/></g><path d="M18-100v-36l175-74v27L42-118l151 64v27" id="Z"/><path d="M96-169c-40 0-48 33-48 73s9 75 48 75c24 0 41-14 43-38l32 2c-6 37-31 61-74 61-59 0-76-41-82-99-10-93 101-131 147-64 4 7 5 14 7 22l-32 3c-4-21-16-35-41-35" id="aa"/><path d="M100-194c62-1 85 37 85 99 1 63-27 99-86 99S16-35 15-95c0-66 28-99 85-99zM99-20c44 1 53-31 53-75 0-43-8-75-51-75s-53 32-53 75 10 74 51 75" id="ab"/><path d="M210-169c-67 3-38 105-44 169h-31v-121c0-29-5-50-35-48C34-165 62-65 56 0H25l-1-190h30c1 10-1 24 2 32 10-44 99-50 107 0 11-21 27-35 58-36 85-2 47 119 55 194h-31v-121c0-29-5-49-35-48" id="ac"/><path d="M115-194c55 1 70 41 70 98S169 2 115 4C84 4 66-9 55-30l1 105H24l-1-265h31l2 30c10-21 28-34 59-34zm-8 174c40 0 45-34 45-75s-6-73-45-74c-42 0-51 32-51 76 0 43 10 73 51 73" id="ad"/><path d="M117-194c89-4 53 116 60 194h-32v-121c0-31-8-49-39-48C34-167 62-67 57 0H25l-1-190h30c1 10-1 24 2 32 11-22 29-35 61-36" id="ae"/><path d="M18-27v-27l151-64-151-65v-27l175 74v36" id="af"/><g id="c"><use transform="matrix(0.05,0,0,0.05,0,0)" xlink:href="#Z"/><use transform="matrix(0.05,0,0,0.05,10.5,0)" xlink:href="#Z"/><use transform="matrix(0.05,0,0,0.05,21,0)" xlink:href="#aa"/><use transform="matrix(0.05,0,0,0.05,30,0)" xlink:href="#ab"/><use transform="matrix(0.05,0,0,0.05,40,0)" xlink:href="#ac"/><use transform="matrix(0.05,0,0,0.05,54.95,0)" xlink:href="#ad"/><use transform="matrix(0.05,0,0,0.05,64.95,0)" xlink:href="#ab"/><use transform="matrix(0.05,0,0,0.05,74.95,0)" xlink:href="#ae"/><use transform="matrix(0.05,0,0,0.05,84.95,0)" xlink:href="#X"/><use transform="matrix(0.05,0,0,0.05,94.95,0)" xlink:href="#ae"/><use transform="matrix(0.05,0,0,0.05,104.95,0)" xlink:href="#S"/><use transform="matrix(0.05,0,0,0.05,109.95,0)" xlink:href="#af"/><use transform="matrix(0.05,0,0,0.05,120.45,0)" xlink:href="#af"/></g><g id="d"><use transform="matrix(0.05,0,0,0.05,0,0)" xlink:href="#O"/><use transform="matrix(0.05,0,0,0.05,16.599999999999998,0)" xlink:href="#X"/><use transform="matrix(0.05,0,0,0.05,26.599999999999994,0)" xlink:href="#V"/></g><path d="M177-190C167-65 218 103 67 71c-23-6-38-20-44-43l32-5c15 47 100 32 89-28v-30C133-14 115 1 83 1 29 1 15-40 15-95c0-56 16-97 71-98 29-1 48 16 59 35 1-10 0-23 2-32h30zM94-22c36 0 50-32 50-73 0-42-14-75-50-75-39 0-46 34-46 75s6 73 46 73" id="ag"/><path d="M141-36C126-15 110 5 73 4 37 3 15-17 15-53c-1-64 63-63 125-63 3-35-9-54-41-54-24 1-41 7-42 31l-33-3c5-37 33-52 76-52 45 0 72 20 72 64v82c-1 20 7 32 28 27v20c-31 9-61-2-59-35zM48-53c0 20 12 33 32 33 41-3 63-29 60-74-43 2-92-5-92 41" id="ah"/><g id="e"><use transform="matrix(0.05,0,0,0.05,0,0)" xlink:href="#P"/><use transform="matrix(0.05,0,0,0.05,14.950000000000001,0)" xlink:href="#U"/><use transform="matrix(0.05,0,0,0.05,18.900000000000002,0)" xlink:href="#ag"/><use transform="matrix(0.05,0,0,0.05,28.900000000000002,0)" xlink:href="#T"/><use transform="matrix(0.05,0,0,0.05,34.85,0)" xlink:href="#ah"/><use transform="matrix(0.05,0,0,0.05,44.85,0)" xlink:href="#S"/><use transform="matrix(0.05,0,0,0.05,49.85,0)" xlink:href="#U"/><use transform="matrix(0.05,0,0,0.05,53.800000000000004,0)" xlink:href="#ab"/><use transform="matrix(0.05,0,0,0.05,63.800000000000004,0)" xlink:href="#ae"/></g><g id="f"><use transform="matrix(0.05,0,0,0.05,0,0)" xlink:href="#R"/><use transform="matrix(0.05,0,0,0.05,12,0)" xlink:href="#ad"/><use transform="matrix(0.05,0,0,0.05,22,0)" xlink:href="#ad"/></g><path d="M179-190L93 31C79 59 56 82 12 73V49c39 6 53-20 64-50L1-190h34L92-34l54-156h33" id="ai"/><g id="g"><use transform="matrix(0.05,0,0,0.05,0,0)" xlink:href="#Z"/><use transform="matrix(0.05,0,0,0.05,10.5,0)" xlink:href="#Z"/><use transform="matrix(0.05,0,0,0.05,21,0)" xlink:href="#Y"/><use transform="matrix(0.05,0,0,0.05,30,0)" xlink:href="#W"/><use transform="matrix(0.05,0,0,0.05,40,0)" xlink:href="#V"/><use transform="matrix(0.05,0,0,0.05,50,0)" xlink:href="#Y"/><use transform="matrix(0.05,0,0,0.05,59,0)" xlink:href="#ai"/><use transform="matrix(0.05,0,0,0.05,68,0)" xlink:href="#Y"/><use transform="matrix(0.05,0,0,0.05,77,0)" xlink:href="#S"/><use transform="matrix(0.05,0,0,0.05,82,0)" xlink:href="#X"/><use transform="matrix(0.05,0,0,0.05,92,0)" xlink:href="#ac"/><use transform="matrix(0.05,0,0,0.05,106.95,0)" xlink:href="#af"/><use transform="matrix(0.05,0,0,0.05,117.45,0)" xlink:href="#af"/></g><path d="M212-179c-10-28-35-45-73-45-59 0-87 40-87 99 0 60 29 101 89 101 43 0 62-24 78-52l27 14C228-24 195 4 139 4 59 4 22-46 18-125c-6-104 99-153 187-111 19 9 31 26 39 46" id="aj"/><path d="M101-234c-31-9-42 10-38 44h38v23H63V0H32v-167H5v-23h27c-7-52 17-82 69-68v24" id="ak"/><g id="h"><use transform="matrix(0.05,0,0,0.05,0,0)" xlink:href="#aj"/><use transform="matrix(0.05,0,0,0.05,12.950000000000001,0)" xlink:href="#ab"/><use transform="matrix(0.05,0,0,0.05,22.950000000000003,0)" xlink:href="#ae"/><use transform="matrix(0.05,0,0,0.05,32.95,0)" xlink:href="#ak"/><use transform="matrix(0.05,0,0,0.05,37.95,0)" xlink:href="#U"/><use transform="matrix(0.05,0,0,0.05,41.900000000000006,0)" xlink:href="#ag"/><use transform="matrix(0.05,0,0,0.05,51.900000000000006,0)" xlink:href="#W"/><use transform="matrix(0.05,0,0,0.05,61.900000000000006,0)" xlink:href="#T"/><use transform="matrix(0.05,0,0,0.05,67.85000000000001,0)" xlink:href="#ah"/><use transform="matrix(0.05,0,0,0.05,77.85000000000001,0)" xlink:href="#S"/><use transform="matrix(0.05,0,0,0.05,82.85000000000001,0)" xlink:href="#U"/><use transform="matrix(0.05,0,0,0.05,86.80000000000001,0)" xlink:href="#ab"/><use transform="matrix(0.05,0,0,0.05,96.80000000000001,0)" xlink:href="#ae"/></g><g id="i"><use transform="matrix(0.05,0,0,0.05,0,0)" xlink:href="#Q"/><use transform="matrix(0.05,0,0,0.05,12,0)" xlink:href="#ah"/><use transform="matrix(0.05,0,0,0.05,22,0)" xlink:href="#ag"/><use transform="matrix(0.05,0,0,0.05,32,0)" xlink:href="#X"/></g><path d="M63-220v92h138v28H63V0H30v-248h175v28H63" id="al"/><path d="M24 0v-261h32V0H24" id="am"/><g id="j"><use transform="matrix(0.05,0,0,0.05,0,0)" xlink:href="#al"/><use transform="matrix(0.05,0,0,0.05,10.950000000000001,0)" xlink:href="#U"/><use transform="matrix(0.05,0,0,0.05,14.9,0)" xlink:href="#am"/><use transform="matrix(0.05,0,0,0.05,18.85,0)" xlink:href="#X"/></g><g id="k"><use transform="matrix(0.05,0,0,0.05,0,0)" xlink:href="#P"/><use transform="matrix(0.05,0,0,0.05,14.950000000000001,0)" xlink:href="#ah"/><use transform="matrix(0.05,0,0,0.05,24.950000000000003,0)" xlink:href="#ae"/><use transform="matrix(0.05,0,0,0.05,34.95,0)" xlink:href="#ah"/><use transform="matrix(0.05,0,0,0.05,44.95,0)" xlink:href="#ag"/><use transform="matrix(0.05,0,0,0.05,54.95,0)" xlink:href="#X"/><use transform="matrix(0.05,0,0,0.05,64.95,0)" xlink:href="#T"/></g><path d="M30 0v-248h187v28H63v79h144v27H63v87h162V0H30" id="an"/><path d="M141 0L90-78 38 0H4l68-98-65-92h35l48 74 47-74h35l-64 92 68 98h-35" id="ao"/><g id="l"><use transform="matrix(0.05,0,0,0.05,0,0)" xlink:href="#an"/><use transform="matrix(0.05,0,0,0.05,12,0)" xlink:href="#ao"/><use transform="matrix(0.05,0,0,0.05,21,0)" xlink:href="#ad"/><use transform="matrix(0.05,0,0,0.05,31,0)" xlink:href="#X"/><use transform="matrix(0.05,0,0,0.05,41,0)" xlink:href="#T"/><use transform="matrix(0.05,0,0,0.05,46.95,0)" xlink:href="#U"/><use transform="matrix(0.05,0,0,0.05,50.900000000000006,0)" xlink:href="#X"/><use transform="matrix(0.05,0,0,0.05,60.900000000000006,0)" xlink:href="#ae"/><use transform="matrix(0.05,0,0,0.05,70.9,0)" xlink:href="#aa"/><use transform="matrix(0.05,0,0,0.05,79.9,0)" xlink:href="#X"/></g><g id="m"><use transform="matrix(0.05,0,0,0.05,0,0)" xlink:href="#aj"/><use transform="matrix(0.05,0,0,0.05,12.950000000000001,0)" xlink:href="#ab"/><use transform="matrix(0.05,0,0,0.05,22.950000000000003,0)" xlink:href="#am"/><use transform="matrix(0.05,0,0,0.05,26.900000000000002,0)" xlink:href="#am"/><use transform="matrix(0.05,0,0,0.05,30.85,0)" xlink:href="#X"/><use transform="matrix(0.05,0,0,0.05,40.85,0)" xlink:href="#aa"/><use transform="matrix(0.05,0,0,0.05,49.85,0)" xlink:href="#S"/><use transform="matrix(0.05,0,0,0.05,54.85,0)" xlink:href="#U"/><use transform="matrix(0.05,0,0,0.05,58.800000000000004,0)" xlink:href="#ab"/><use transform="matrix(0.05,0,0,0.05,68.80000000000001,0)" xlink:href="#ae"/></g><path d="M127-220V0H93v-220H8v-28h204v28h-85" id="ap"/><path d="M143 0L79-87 56-68V0H24v-261h32v163l83-92h37l-77 82L181 0h-38" id="aq"/><g id="n"><use transform="matrix(0.05,0,0,0.05,0,0)" xlink:href="#ap"/><use transform="matrix(0.05,0,0,0.05,8.950000000000001,0)" xlink:href="#ah"/><use transform="matrix(0.05,0,0,0.05,18.950000000000003,0)" xlink:href="#Y"/><use transform="matrix(0.05,0,0,0.05,27.950000000000003,0)" xlink:href="#aq"/></g><path d="M160-131c35 5 61 23 61 61C221 17 115-2 30 0v-248c76 3 177-17 177 60 0 33-19 50-47 57zm-97-11c50-1 110 9 110-42 0-47-63-36-110-37v79zm0 115c55-2 124 14 124-45 0-56-70-42-124-44v89" id="ar"/><path d="M85-194c31 0 48 13 60 33l-1-100h32l1 261h-30c-2-10 0-23-3-31C134-8 116 4 85 4 32 4 16-35 15-94c0-66 23-100 70-100zm9 24c-40 0-46 34-46 75 0 40 6 74 45 74 42 0 51-32 51-76 0-42-9-74-50-73" id="as"/><g id="o"><use transform="matrix(0.05,0,0,0.05,0,0)" xlink:href="#ar"/><use transform="matrix(0.05,0,0,0.05,12,0)" xlink:href="#ab"/><use transform="matrix(0.05,0,0,0.05,22,0)" xlink:href="#ah"/><use transform="matrix(0.05,0,0,0.05,32,0)" xlink:href="#T"/><use transform="matrix(0.05,0,0,0.05,37.95,0)" xlink:href="#as"/></g><path d="M190 0L58-211 59 0H30v-248h39L202-35l-2-213h31V0h-41" id="at"/><g id="p"><use transform="matrix(0.05,0,0,0.05,0,0)" xlink:href="#ar"/><use transform="matrix(0.05,0,0,0.05,12,0)" xlink:href="#Q"/><use transform="matrix(0.05,0,0,0.05,24,0)" xlink:href="#P"/><use transform="matrix(0.05,0,0,0.05,38.95,0)" xlink:href="#at"/></g><path d="M185-189c-5-48-123-54-124 2 14 75 158 14 163 119 3 78-121 87-175 55-17-10-28-26-33-46l33-7c5 56 141 63 141-1 0-78-155-14-162-118-5-82 145-84 179-34 5 7 8 16 11 25" id="au"/><g id="q"><use transform="matrix(0.05,0,0,0.05,0,0)" xlink:href="#au"/><use transform="matrix(0.05,0,0,0.05,12,0)" xlink:href="#S"/><use transform="matrix(0.05,0,0,0.05,17,0)" xlink:href="#X"/><use transform="matrix(0.05,0,0,0.05,27,0)" xlink:href="#ad"/></g><g id="r"><use transform="matrix(0.05,0,0,0.05,0,0)" xlink:href="#Q"/><use transform="matrix(0.05,0,0,0.05,12,0)" xlink:href="#am"/><use transform="matrix(0.05,0,0,0.05,15.949999999999998,0)" xlink:href="#W"/><use transform="matrix(0.05,0,0,0.05,25.950000000000003,0)" xlink:href="#ag"/><use transform="matrix(0.05,0,0,0.05,35.95,0)" xlink:href="#U"/><use transform="matrix(0.05,0,0,0.05,39.900000000000006,0)" xlink:href="#ae"/></g><g id="s"><use transform="matrix(0.05,0,0,0.05,0,0)" xlink:href="#Q"/><use transform="matrix(0.05,0,0,0.05,12,0)" xlink:href="#am"/><use transform="matrix(0.05,0,0,0.05,15.949999999999998,0)" xlink:href="#W"/><use transform="matrix(0.05,0,0,0.05,25.950000000000003,0)" xlink:href="#ag"/><use transform="matrix(0.05,0,0,0.05,35.95,0)" xlink:href="#U"/><use transform="matrix(0.05,0,0,0.05,39.900000000000006,0)" xlink:href="#ae"/></g><g id="t"><use transform="matrix(0.05,0,0,0.05,0,0)" xlink:href="#O"/><use transform="matrix(0.05,0,0,0.05,16.599999999999998,0)" xlink:href="#ab"/><use transform="matrix(0.05,0,0,0.05,26.599999999999994,0)" xlink:href="#T"/><use transform="matrix(0.05,0,0,0.05,32.55,0)" xlink:href="#aq"/><use transform="matrix(0.05,0,0,0.05,41.55,0)" xlink:href="#X"/><use transform="matrix(0.05,0,0,0.05,51.54999999999999,0)" xlink:href="#T"/></g><path d="M108 0H70L1-190h34L89-25l56-165h34" id="av"/><g id="u"><use transform="matrix(0.05,0,0,0.05,0,0)" xlink:href="#Z"/><use transform="matrix(0.05,0,0,0.05,10.5,0)" xlink:href="#Z"/><use transform="matrix(0.05,0,0,0.05,21,0)" xlink:href="#Y"/><use transform="matrix(0.05,0,0,0.05,30,0)" xlink:href="#X"/><use transform="matrix(0.05,0,0,0.05,40,0)" xlink:href="#T"/><use transform="matrix(0.05,0,0,0.05,45.95,0)" xlink:href="#av"/><use transform="matrix(0.05,0,0,0.05,54.95,0)" xlink:href="#U"/><use transform="matrix(0.05,0,0,0.05,58.900000000000006,0)" xlink:href="#aa"/><use transform="matrix(0.05,0,0,0.05,67.9,0)" xlink:href="#X"/><use transform="matrix(0.05,0,0,0.05,77.9,0)" xlink:href="#af"/><use transform="matrix(0.05,0,0,0.05,88.4,0)" xlink:href="#af"/></g><g id="v"><use transform="matrix(0.05,0,0,0.05,0,0)" xlink:href="#X"/><use transform="matrix(0.05,0,0,0.05,10,0)" xlink:href="#am"/><use transform="matrix(0.05,0,0,0.05,13.949999999999998,0)" xlink:href="#al"/><use transform="matrix(0.05,0,0,0.05,24.9,0)" xlink:href="#U"/><use transform="matrix(0.05,0,0,0.05,28.849999999999994,0)" xlink:href="#ae"/><use transform="matrix(0.05,0,0,0.05,38.849999999999994,0)" xlink:href="#as"/><use transform="matrix(0.05,0,0,0.05,48.849999999999994,0)" xlink:href="#X"/><use transform="matrix(0.05,0,0,0.05,58.849999999999994,0)" xlink:href="#T"/></g><g id="w"><use transform="matrix(0.05,0,0,0.05,0,0)" xlink:href="#au"/><use transform="matrix(0.05,0,0,0.05,12,0)" xlink:href="#X"/><use transform="matrix(0.05,0,0,0.05,22,0)" xlink:href="#T"/><use transform="matrix(0.05,0,0,0.05,27.950000000000003,0)" xlink:href="#av"/><use transform="matrix(0.05,0,0,0.05,36.95,0)" xlink:href="#U"/><use transform="matrix(0.05,0,0,0.05,40.900000000000006,0)" xlink:href="#aa"/><use transform="matrix(0.05,0,0,0.05,49.900000000000006,0)" xlink:href="#X"/></g><g id="x"><use transform="matrix(0.05,0,0,0.05,0,0)" xlink:href="#Z"/><use transform="matrix(0.05,0,0,0.05,10.5,0)" xlink:href="#Z"/><use transform="matrix(0.05,0,0,0.05,21,0)" xlink:href="#ad"/><use transform="matrix(0.05,0,0,0.05,31,0)" xlink:href="#T"/><use transform="matrix(0.05,0,0,0.05,36.95,0)" xlink:href="#ab"/><use transform="matrix(0.05,0,0,0.05,46.95,0)" xlink:href="#aa"/><use transform="matrix(0.05,0,0,0.05,55.95,0)" xlink:href="#X"/><use transform="matrix(0.05,0,0,0.05,65.95,0)" xlink:href="#Y"/><use transform="matrix(0.05,0,0,0.05,74.95,0)" xlink:href="#Y"/><use transform="matrix(0.05,0,0,0.05,83.95,0)" xlink:href="#af"/><use transform="matrix(0.05,0,0,0.05,94.45,0)" xlink:href="#af"/></g><g id="y"><use transform="matrix(0.05,0,0,0.05,0,0)" xlink:href="#aj"/><use transform="matrix(0.05,0,0,0.05,12.950000000000001,0)" xlink:href="#ah"/><use transform="matrix(0.05,0,0,0.05,22.950000000000003,0)" xlink:href="#ac"/><use transform="matrix(0.05,0,0,0.05,37.900000000000006,0)" xlink:href="#W"/><use transform="matrix(0.05,0,0,0.05,47.900000000000006,0)" xlink:href="#ae"/><use transform="matrix(0.05,0,0,0.05,57.900000000000006,0)" xlink:href="#as"/><use transform="matrix(0.05,0,0,0.05,67.9,0)" xlink:href="#ah"/></g><path d="M206 0h-36l-40-164L89 0H53L-1-190h32L70-26l43-164h34l41 164 42-164h31" id="aw"/><g id="z"><use transform="matrix(0.05,0,0,0.05,0,0)" xlink:href="#O"/><use transform="matrix(0.05,0,0,0.05,16.599999999999998,0)" xlink:href="#ab"/><use transform="matrix(0.05,0,0,0.05,26.599999999999994,0)" xlink:href="#T"/><use transform="matrix(0.05,0,0,0.05,32.55,0)" xlink:href="#aq"/><use transform="matrix(0.05,0,0,0.05,41.55,0)" xlink:href="#ak"/><use transform="matrix(0.05,0,0,0.05,46.55,0)" xlink:href="#am"/><use transform="matrix(0.05,0,0,0.05,50.5,0)" xlink:href="#ab"/><use transform="matrix(0.05,0,0,0.05,60.5,0)" xlink:href="#aw"/></g><g id="A"><use transform="matrix(0.05,0,0,0.05,0,0)" xlink:href="#an"/><use transform="matrix(0.05,0,0,0.05,12,0)" xlink:href="#ae"/><use transform="matrix(0.05,0,0,0.05,22,0)" xlink:href="#ag"/><use transform="matrix(0.05,0,0,0.05,32,0)" xlink:href="#U"/><use transform="matrix(0.05,0,0,0.05,35.95,0)" xlink:href="#ae"/><use transform="matrix(0.05,0,0,0.05,45.95,0)" xlink:href="#X"/></g><g id="B"><use transform="matrix(0.05,0,0,0.05,0,0)" xlink:href="#P"/><use transform="matrix(0.05,0,0,0.05,14.950000000000001,0)" xlink:href="#U"/><use transform="matrix(0.05,0,0,0.05,18.900000000000002,0)" xlink:href="#ag"/><use transform="matrix(0.05,0,0,0.05,28.900000000000002,0)" xlink:href="#T"/><use transform="matrix(0.05,0,0,0.05,34.85,0)" xlink:href="#ah"/><use transform="matrix(0.05,0,0,0.05,44.85,0)" xlink:href="#S"/><use transform="matrix(0.05,0,0,0.05,49.85,0)" xlink:href="#U"/><use transform="matrix(0.05,0,0,0.05,53.800000000000004,0)" xlink:href="#ab"/><use transform="matrix(0.05,0,0,0.05,63.800000000000004,0)" xlink:href="#ae"/></g><g id="C"><use transform="matrix(0.05,0,0,0.05,0,0)" xlink:href="#au"/><use transform="matrix(0.05,0,0,0.05,12,0)" xlink:href="#X"/><use transform="matrix(0.05,0,0,0.05,22,0)" xlink:href="#T"/><use transform="matrix(0.05,0,0,0.05,27.950000000000003,0)" xlink:href="#av"/><use transform="matrix(0.05,0,0,0.05,36.95,0)" xlink:href="#U"/><use transform="matrix(0.05,0,0,0.05,40.900000000000006,0)" xlink:href="#aa"/><use transform="matrix(0.05,0,0,0.05,49.900000000000006,0)" xlink:href="#X"/><use transform="matrix(0.05,0,0,0.05,59.900000000000006,0)" xlink:href="#Y"/></g><g id="D"><use transform="matrix(0.05,0,0,0.05,0,0)" xlink:href="#X"/><use transform="matrix(0.05,0,0,0.05,10,0)" xlink:href="#am"/><use transform="matrix(0.05,0,0,0.05,13.949999999999998,0)" xlink:href="#al"/><use transform="matrix(0.05,0,0,0.05,24.9,0)" xlink:href="#U"/><use transform="matrix(0.05,0,0,0.05,28.849999999999994,0)" xlink:href="#ae"/><use transform="matrix(0.05,0,0,0.05,38.849999999999994,0)" xlink:href="#as"/><use transform="matrix(0.05,0,0,0.05,48.849999999999994,0)" xlink:href="#X"/><use transform="matrix(0.05,0,0,0.05,58.849999999999994,0)" xlink:href="#T"/></g><g id="E"><use transform="matrix(0.05,0,0,0.05,0,0)" xlink:href="#U"/><use transform="matrix(0.05,0,0,0.05,3.95,0)" xlink:href="#ae"/><use transform="matrix(0.05,0,0,0.05,13.949999999999998,0)" xlink:href="#S"/><use transform="matrix(0.05,0,0,0.05,18.95,0)" xlink:href="#X"/><use transform="matrix(0.05,0,0,0.05,28.950000000000003,0)" xlink:href="#T"/><use transform="matrix(0.05,0,0,0.05,34.9,0)" xlink:href="#ak"/><use transform="matrix(0.05,0,0,0.05,39.9,0)" xlink:href="#ah"/><use transform="matrix(0.05,0,0,0.05,49.9,0)" xlink:href="#aa"/><use transform="matrix(0.05,0,0,0.05,58.900000000000006,0)" xlink:href="#X"/></g><g id="F"><use transform="matrix(0.05,0,0,0.05,0,0)" xlink:href="#an"/><use transform="matrix(0.05,0,0,0.05,12,0)" xlink:href="#ao"/><use transform="matrix(0.05,0,0,0.05,21,0)" xlink:href="#ad"/><use transform="matrix(0.05,0,0,0.05,31,0)" xlink:href="#X"/><use transform="matrix(0.05,0,0,0.05,41,0)" xlink:href="#T"/><use transform="matrix(0.05,0,0,0.05,46.95,0)" xlink:href="#U"/><use transform="matrix(0.05,0,0,0.05,50.900000000000006,0)" xlink:href="#X"/><use transform="matrix(0.05,0,0,0.05,60.900000000000006,0)" xlink:href="#ae"/><use transform="matrix(0.05,0,0,0.05,70.9,0)" xlink:href="#aa"/><use transform="matrix(0.05,0,0,0.05,79.9,0)" xlink:href="#X"/></g><g id="G"><use transform="matrix(0.05,0,0,0.05,0,0)" xlink:href="#N"/><use transform="matrix(0.05,0,0,0.05,12.950000000000001,0)" xlink:href="#an"/><use transform="matrix(0.05,0,0,0.05,24.950000000000003,0)" xlink:href="#au"/><use transform="matrix(0.05,0,0,0.05,36.95,0)" xlink:href="#ap"/></g><g id="H"><use transform="matrix(0.05,0,0,0.05,0,0)" xlink:href="#ap"/><use transform="matrix(0.05,0,0,0.05,8.950000000000001,0)" xlink:href="#ah"/><use transform="matrix(0.05,0,0,0.05,18.950000000000003,0)" xlink:href="#Y"/><use transform="matrix(0.05,0,0,0.05,27.950000000000003,0)" xlink:href="#aq"/></g><g id="I"><use transform="matrix(0.05,0,0,0.05,0,0)" xlink:href="#Q"/><use transform="matrix(0.05,0,0,0.05,12,0)" xlink:href="#am"/><use transform="matrix(0.05,0,0,0.05,15.949999999999998,0)" xlink:href="#W"/><use transform="matrix(0.05,0,0,0.05,25.950000000000003,0)" xlink:href="#ag"/><use transform="matrix(0.05,0,0,0.05,35.95,0)" xlink:href="#U"/><use transform="matrix(0.05,0,0,0.05,39.900000000000006,0)" xlink:href="#ae"/></g><g id="J"><use transform="matrix(0.05,0,0,0.05,0,0)" xlink:href="#ar"/><use transform="matrix(0.05,0,0,0.05,12,0)" xlink:href="#Q"/><use transform="matrix(0.05,0,0,0.05,24,0)" xlink:href="#P"/><use transform="matrix(0.05,0,0,0.05,38.95,0)" xlink:href="#at"/></g><g id="K"><use transform="matrix(0.05,0,0,0.05,0,0)" xlink:href="#aj"/><use transform="matrix(0.05,0,0,0.05,12.950000000000001,0)" xlink:href="#ah"/><use transform="matrix(0.05,0,0,0.05,22.950000000000003,0)" xlink:href="#ac"/><use transform="matrix(0.05,0,0,0.05,37.900000000000006,0)" xlink:href="#W"/><use transform="matrix(0.05,0,0,0.05,47.900000000000006,0)" xlink:href="#ae"/><use transform="matrix(0.05,0,0,0.05,57.900000000000006,0)" xlink:href="#as"/><use transform="matrix(0.05,0,0,0.05,67.9,0)" xlink:href="#ah"/></g><g id="L"><use transform="matrix(0.05,0,0,0.05,0,0)" xlink:href="#P"/><use transform="matrix(0.05,0,0,0.05,14.950000000000001,0)" xlink:href="#U"/><use transform="matrix(0.05,0,0,0.05,18.900000000000002,0)" xlink:href="#ag"/><use transform="matrix(0.05,0,0,0.05,28.900000000000002,0)" xlink:href="#T"/><use transform="matrix(0.05,0,0,0.05,34.85,0)" xlink:href="#ah"/><use transform="matrix(0.05,0,0,0.05,44.85,0)" xlink:href="#S"/><use transform="matrix(0.05,0,0,0.05,49.85,0)" xlink:href="#U"/><use transform="matrix(0.05,0,0,0.05,53.800000000000004,0)" xlink:href="#ab"/><use transform="matrix(0.05,0,0,0.05,63.800000000000004,0)" xlink:href="#ae"/></g><g id="M"><use transform="matrix(0.05,0,0,0.05,0,0)" xlink:href="#au"/><use transform="matrix(0.05,0,0,0.05,12,0)" xlink:href="#X"/><use transform="matrix(0.05,0,0,0.05,22,0)" xlink:href="#T"/><use transform="matrix(0.05,0,0,0.05,27.950000000000003,0)" xlink:href="#av"/><use transform="matrix(0.05,0,0,0.05,36.95,0)" xlink:href="#U"/><use transform="matrix(0.05,0,0,0.05,40.900000000000006,0)" xlink:href="#aa"/><use transform="matrix(0.05,0,0,0.05,49.900000000000006,0)" xlink:href="#X"/></g></defs></g></svg>