<svg xmlns="http://www.w3.org/2000/svg" xmlns:xlink="http://www.w3.org/1999/xlink" xmlns:lucid="lucid" width="891.29" height="708.71"><g transform="translate(0 0)" lucid:page-tab-id="0_0"><path d="M153 571c0-2.76 2.24-5 5-5h150c2.76 0 5 2.24 5 5v110c0 2.76-2.24 5-5 5H158c-2.76 0-5-2.24-5-5z" stroke="#000" stroke-width="2" fill="#fff"/><path d="M303 576h-15v20h15z" stroke="#000" fill="#fff"/><path d="M293 579.33h-10v3.34h10zm0 10h-10v3.34h10z" stroke="#000" fill="#fff"/><use xlink:href="#a" transform="matrix(1,0,0,1,153.00000000000003,566) translate(14.53000000000001 51.9)"/><use xlink:href="#b" transform="matrix(1,0,0,1,153.00000000000003,566) translate(16.055 73.5)"/><path d="M742 291h136c2.76 0 5 2.24 5 5v404c0 2.76-2.24 5-5 5H508c-2.76 0-5-2.24-5-5V270c0-2.76 2.24-5 5-5h218c2.76 0 5.87 2.06 6.95 4.6zm-239 0h239" stroke="#000" stroke-width="2" fill="#fff"/><use xlink:href="#c" transform="matrix(1,0,0,1,511,265) translate(0 16.6)"/><use xlink:href="#d" transform="matrix(1,0,0,1,511,265) translate(42.900000000000006 16.6)"/><path d="M523 323.76c0-2.76 2.24-5 5-5h150c2.76 0 5 2.24 5 5v110c0 2.76-2.24 5-5 5H528c-2.76 0-5-2.24-5-5z" stroke="#000" stroke-width="2" fill="#fff"/><path d="M673 328.76h-15v20h15z" stroke="#000" fill="#fff"/><path d="M663 332.1h-10v3.33h10zm0 10h-10v3.33h10z" stroke="#000" fill="#fff"/><use xlink:href="#a" transform="matrix(1,0,0,1,523,318.75905839528457) translate(14.53000000000001 51.9)"/><use xlink:href="#e" transform="matrix(1,0,0,1,523,318.75905839528457) translate(56.555 73.5)"/><path d="M282 296.27h136c2.76 0 5 2.24 5 5V460c0 2.76-2.24 5-5 5H48c-2.76 0-5-2.24-5-5V275.27c0-2.76 2.24-5 5-5h218c2.76 0 5.87 2.06 6.95 4.6zm-239 0h239" stroke="#000" stroke-width="2" fill="#fff"/><use xlink:href="#f" transform="matrix(1,0,0,1,51.00000000000003,270.27169669510283) translate(0 16.6)"/><path d="M63 323.76c0-2.76 2.24-5 5-5h150c2.76 0 5 2.24 5 5v110c0 2.76-2.24 5-5 5H68c-2.76 0-5-2.24-5-5z" stroke="#000" stroke-width="2" fill="#fff"/><path d="M213 328.76h-15v20h15z" stroke="#000" fill="#fff"/><path d="M203 332.1h-10v3.33h10zm0 10h-10v3.33h10z" stroke="#000" fill="#fff"/><use xlink:href="#a" transform="matrix(1,0,0,1,63,318.75905839528457) translate(14.53000000000001 51.9)"/><use xlink:href="#g" transform="matrix(1,0,0,1,63,318.75905839528457) translate(20.029999999999994 73.5)"/><use xlink:href="#h" transform="matrix(1,0,0,1,63,318.75905839528457) translate(110.98 73.5)"/><path d="M523 450c0-2.76 2.24-5 5-5h150c2.76 0 5 2.24 5 5v110c0 2.76-2.24 5-5 5H528c-2.76 0-5-2.24-5-5z" stroke="#000" stroke-width="2" fill="#fff"/><path d="M673 455h-15v20h15z" stroke="#000" fill="#fff"/><path d="M663 458.33h-10v3.34h10zm0 10h-10v3.34h10z" stroke="#000" fill="#fff"/><use xlink:href="#a" transform="matrix(1,0,0,1,523,445.00000000000006) translate(14.53000000000001 51.9)"/><use xlink:href="#i" transform="matrix(1,0,0,1,523,445.00000000000006) translate(24.75499999999999 73.5)"/><use xlink:href="#j" transform="matrix(1,0,0,1,523,445.00000000000006) translate(96.705 73.5)"/><path d="M693 323.76c0-2.76 2.24-5 5-5h150c2.76 0 5 2.24 5 5v110c0 2.76-2.24 5-5 5H698c-2.76 0-5-2.24-5-5z" stroke="#000" stroke-width="2" fill="#fff"/><path d="M843 328.76h-15v20h15z" stroke="#000" fill="#fff"/><path d="M833 332.1h-10v3.33h10zm0 10h-10v3.33h10z" stroke="#000" fill="#fff"/><use xlink:href="#a" transform="matrix(1,0,0,1,693,318.75905839528457) translate(14.53000000000001 51.9)"/><use xlink:href="#k" transform="matrix(1,0,0,1,693,318.75905839528457) translate(11.62999999999999 73.5)"/><use xlink:href="#l" transform="matrix(1,0,0,1,693,318.75905839528457) translate(73.58 73.5)"/><use xlink:href="#m" transform="matrix(1,0,0,1,693,318.75905839528457) translate(108.58 73.5)"/><path d="M693 450c0-2.76 2.24-5 5-5h150c2.76 0 5 2.24 5 5v110c0 2.76-2.24 5-5 5H698c-2.76 0-5-2.24-5-5z" stroke="#000" stroke-width="2" fill="#fff"/><path d="M843 455h-15v20h15z" stroke="#000" fill="#fff"/><path d="M833 458.33h-10v3.34h10zm0 10h-10v3.34h10z" stroke="#000" fill="#fff"/><use xlink:href="#a" transform="matrix(1,0,0,1,693,445.00000000000006) translate(14.53000000000001 51.9)"/><use xlink:href="#n" transform="matrix(1,0,0,1,693,445.00000000000006) translate(25.779999999999994 73.5)"/><use xlink:href="#j" transform="matrix(1,0,0,1,693,445.00000000000006) translate(95.68 73.5)"/><path d="M523 576.24c0-2.76 2.24-5 5-5h150c2.76 0 5 2.24 5 5v110c0 2.76-2.24 5-5 5H528c-2.76 0-5-2.24-5-5z" stroke="#000" stroke-width="2" fill="#fff"/><path d="M673 581.24h-15v20h15z" stroke="#000" fill="#fff"/><path d="M663 584.57h-10v3.34h10zm0 10h-10v3.34h10z" stroke="#000" fill="#fff"/><use xlink:href="#a" transform="matrix(1,0,0,1,523,571.2409416047155) translate(14.53000000000001 51.9)"/><use xlink:href="#o" transform="matrix(1,0,0,1,523,571.2409416047155) translate(25.279999999999994 73.5)"/><path d="M693 576.24c0-2.76 2.24-5 5-5h150c2.76 0 5 2.24 5 5v110c0 2.76-2.24 5-5 5H698c-2.76 0-5-2.24-5-5z" stroke="#000" stroke-width="2" fill="#fff"/><path d="M843 581.24h-15v20h15z" stroke="#000" fill="#fff"/><path d="M833 584.57h-10v3.34h10zm0 10h-10v3.34h10z" stroke="#000" fill="#fff"/><use xlink:href="#a" transform="matrix(1,0,0,1,693,571.2409416047155) translate(14.53000000000001 49.41)"/><use xlink:href="#p" transform="matrix(1,0,0,1,693,571.2409416047155) translate(43.10499999999999 71.01)"/><use xlink:href="#q" transform="matrix(1,0,0,1,693,571.2409416047155) translate(27.554999999999993 92.61000000000001)"/><path d="M243 324.52c0-2.77 2.24-5 5-5h150c2.76 0 5 2.23 5 5v110c0 2.76-2.24 5-5 5H248c-2.76 0-5-2.24-5-5z" stroke="#000" stroke-width="2" fill="#fff"/><path d="M393 329.52h-15v20h15z" stroke="#000" fill="#fff"/><path d="M383 332.85h-10v3.33h10zm0 10h-10v3.33h10z" stroke="#000" fill="#fff"/><use xlink:href="#a" transform="matrix(1,0,0,1,243,319.5153775451938) translate(14.53000000000001 51.9)"/><use xlink:href="#r" transform="matrix(1,0,0,1,243,319.5153775451938) translate(6.554999999999987 73.5)"/><use xlink:href="#s" transform="matrix(1,0,0,1,243,319.5153775451938) translate(82.505 73.5)"/><path d="M523 225h11M568 225h5" stroke="#000" stroke-width="2" fill="none"/><path d="M548 211c7.73 0 14 6.27 14 14s-6.27 14-14 14-14-6.27-14-14 6.27-14 14-14z" stroke="#000" stroke-width="2" fill="#fff"/><path d="M548 245c11.05 0 20-8.95 20-20s-8.95-20-20-20" stroke="#000" stroke-width="2" fill="none"/><path d="M523 225c0-.44.36-.8.8-.8h9.4c.44 0 .8.36.8.8 0 .44-.36.8-.8.8h-9.4c-.44 0-.8-.36-.8-.8z" fill="none"/><path d="M522 225h-4.58m-9.17 0h-9.17m-9.16 0h-9.17m-9.17 0H467l-2.95.96-1.8 2.46L462 230v3.9m0 7.82v7.8m0 7.82v7.82m0 7.8v7.82m0 7.8v7.83m0 7.82v7.8m0 7.82v7.82m0 7.8v7.82m0 7.8v7.83m0 7.82v7.8m0 7.82v7.82m0 7.8v7.82m0 7.8v7.83m0 7.82v7.8m0 7.82v7.82m0 7.8v7.82m0 7.8V480l.96 2.95 2.46 1.8 1.58.25h4.15m8.3 0h8.3m8.28 0h4.15" stroke="#000" stroke-width="2" fill="none"/><path d="M523 226h-1.03v-2H523z"/><path d="M482.82 495.18L500.04 485l-17.22-10.18" stroke="#000" stroke-width="2" fill="none"/><path d="M577.85 226H574v-2h3.85zm15.4 0h-7.7v-2h7.7zm15.4 0h-7.7v-2h7.7zm15.4 0h-7.7v-2h7.7zm61.58 0h-7.7v-2h7.7zm15.4 0h-7.7v-2h7.7zm15.4 0h-7.7v-2h7.7zm15.4 0h-7.7v-2h7.7zm15.4 0h-7.7v-2h7.7zm15.4 0h-7.7v-2h7.7zm17.54-5.92l-.3 1.9-2.13 2.9-3.4 1.12h-4.02v-2h3.7l2.48-.82 1.46-2 .2-1.26v-3.94h2zm0-12.15h-2v-8.04h2zm0-16.1h-2v-4h2z"/><path d="M574.03 226H573v-2h1.03zM790.2 204.67l-1.7 1.02-9.33-15.77-9.32 15.76-1.72-1.03L779.17 186z"/><use xlink:href="#t" transform="matrix(1,0,0,1,631.041860816784,214.20000000000005) translate(0 14.4)"/><path d="M728 31h150c2.76 0 5 2.24 5 5v144c0 2.76-2.24 5-5 5H468c-2.76 0-5-2.24-5-5V10c0-2.76 2.24-5 5-5h242c2.76 0 6 2 7.24 4.47zm-265 0h265" stroke="#000" stroke-width="2" fill="#fff"/><use xlink:href="#u" transform="matrix(1,0,0,1,471,4.999999999999929) translate(0 16.6)"/><use xlink:href="#v" transform="matrix(1,0,0,1,471,4.999999999999929) translate(62.900000000000006 16.6)"/><path d="M757.75 64.75c0 5.38-4.37 9.75-9.75 9.75s-9.75-4.37-9.75-9.75S742.62 55 748 55s9.75 4.37 9.75 9.75z" stroke="#000" stroke-width="2" fill="#fff"/><path d="M748 74.5v22.3c0 2.76 1.4 6.75 3.13 8.9L773 133m-25-31.2L723 133m0-48.75h50" stroke="#000" stroke-width="2" fill="none"/><path d="M723 60c0-2.76 2.24-5 5-5h40c2.76 0 5 2.24 5 5v90c0 2.76-2.24 5-5 5h-40c-2.76 0-5-2.24-5-5z" fill="none"/><use xlink:href="#w" transform="matrix(1,0,0,1,643,132.99999999999997) translate(69.55 14.6)"/><path d="M597.75 64.75c0 5.38-4.37 9.75-9.75 9.75s-9.75-4.37-9.75-9.75S582.62 55 588 55s9.75 4.37 9.75 9.75z" stroke="#000" stroke-width="2" fill="#fff"/><path d="M588 74.5v22.3c0 2.76 1.4 6.75 3.13 8.9L613 133m-25-31.2L563 133m0-48.75h50" stroke="#000" stroke-width="2" fill="none"/><path d="M563 60c0-2.76 2.24-5 5-5h40c2.76 0 5 2.24 5 5v90c0 2.76-2.24 5-5 5h-40c-2.76 0-5-2.24-5-5z" fill="none"/><use xlink:href="#x" transform="matrix(1,0,0,1,483,132.99999999999997) translate(67.6 14.6)"/><path d="M517.75 64.75c0 5.38-4.37 9.75-9.75 9.75s-9.75-4.37-9.75-9.75S502.62 55 508 55s9.75 4.37 9.75 9.75z" stroke="#000" stroke-width="2" fill="#fff"/><path d="M508 74.5v22.3c0 2.76 1.4 6.75 3.13 8.9L533 133m-25-31.2L483 133m0-48.75h50" stroke="#000" stroke-width="2" fill="none"/><path d="M483 60c0-2.76 2.24-5 5-5h40c2.76 0 5 2.24 5 5v90c0 2.76-2.24 5-5 5h-40c-2.76 0-5-2.24-5-5z" fill="none"/><use xlink:href="#y" transform="matrix(1,0,0,1,403,132.99999999999997) translate(76.05 14.4)"/><use xlink:href="#z" transform="matrix(1,0,0,1,403,132.99999999999997) translate(66.025 36)"/><path d="M677.75 64.75c0 5.38-4.37 9.75-9.75 9.75s-9.75-4.37-9.75-9.75S662.62 55 668 55s9.75 4.37 9.75 9.75z" stroke="#000" stroke-width="2" fill="#fff"/><path d="M668 74.5v22.3c0 2.76 1.4 6.75 3.13 8.9L693 133m-25-31.2L643 133m0-48.75h50" stroke="#000" stroke-width="2" fill="none"/><path d="M643 60c0-2.76 2.24-5 5-5h40c2.76 0 5 2.24 5 5v90c0 2.76-2.24 5-5 5h-40c-2.76 0-5-2.24-5-5z" fill="none"/><use xlink:href="#A" transform="matrix(1,0,0,1,563,132.99999999999997) translate(69.55 14.6)"/><path d="M277 31h133c2.76 0 5 2.24 5 5v144c0 2.76-2.24 5-5 5H48c-2.76 0-5-2.24-5-5V10c0-2.76 2.24-5 5-5h213c2.76 0 5.87 2.06 6.95 4.6zM43 31h234" stroke="#000" stroke-width="2" fill="#fff"/><use xlink:href="#B" transform="matrix(1,0,0,1,51.00000000000003,4.999999999999929) translate(0 16.6)"/><use xlink:href="#v" transform="matrix(1,0,0,1,51.00000000000003,4.999999999999929) translate(64.95 16.6)"/><path d="M55 50c0-2.76 2.24-5 5-5h150c2.76 0 5 2.24 5 5v110c0 2.76-2.24 5-5 5H60c-2.76 0-5-2.24-5-5z" stroke="#000" stroke-width="2" fill="#fff"/><path d="M205 55h-15v20h15z" stroke="#000" fill="#fff"/><path d="M195 58.33h-10v3.34h10zm0 10h-10v3.34h10z" stroke="#000" fill="#fff"/><use xlink:href="#B" transform="matrix(1,0,0,1,55,44.99999999999997) translate(8.554999999999987 63.15)"/><use xlink:href="#C" transform="matrix(1,0,0,1,55,44.99999999999997) translate(73.505 63.15)"/><path d="M235 50c0-2.76 2.24-5 5-5h150c2.76 0 5 2.24 5 5v110c0 2.76-2.24 5-5 5H240c-2.76 0-5-2.24-5-5z" stroke="#000" stroke-width="2" fill="#fff"/><path d="M385 55h-15v20h15z" stroke="#000" fill="#fff"/><path d="M375 58.33h-10v3.34h10zm0 10h-10v3.34h10z" stroke="#000" fill="#fff"/><use xlink:href="#D" transform="matrix(1,0,0,1,235,44.99999999999997) translate(7.454999999999993 45.410000000000004)"/><use xlink:href="#E" transform="matrix(1,0,0,1,235,44.99999999999997) translate(21.60499999999999 67.01)"/><use xlink:href="#F" transform="matrix(1,0,0,1,235,44.99999999999997) translate(63.555 88.61000000000001)"/><path d="M24.13 227.64h11M69.13 227.64h5" stroke="#000" stroke-width="2" fill="none"/><path d="M49.13 213.64c7.73 0 14 6.26 14 14 0 7.73-6.27 14-14 14-7.74 0-14-6.27-14-14 0-7.74 6.26-14 14-14z" stroke="#000" stroke-width="2" fill="#fff"/><path d="M49.13 247.64c11.04 0 20-8.96 20-20 0-11.05-8.96-20-20-20" stroke="#000" stroke-width="2" fill="none"/><path d="M24.13 227.64c0-.45.35-.8.8-.8h9.4c.44 0 .8.35.8.8 0 .44-.36.8-.8.8h-9.4c-.45 0-.8-.36-.8-.8z" fill="none"/><path d="M14 373.6l.82 2.5 2 1.46 1.26.2h3.44v2h-3.6l-1.9-.3-2.9-2.13-1.12-3.4v-4.1h2zm21.58 6.16h-7.03v-2h7.03zm14.06 0H42.6v-2h7.04zm10.54 0h-3.5v-2h3.5zM14 362h-2v-7.84h2zm0-15.68h-2v-7.84h2zm0-15.68h-2v-7.84h2zm0-15.68h-2v-7.84h2zm0-15.68h-2v-7.84h2zm0-15.68h-2v-7.84h2zm0-15.68h-2v-7.84h2zm0-15.68h-2v-7.84h2zm9.13-23.6h-4.97l-2.5.8-1.46 2-.2 1.28v3.84h-2v-4l.3-1.9 2.13-2.9 3.4-1.12h5.3z"/><path d="M24.13 228.64H23.1v-2h1.03zM62 378.76L43.33 389.8l-1.02-1.72 15.77-9.32-15.76-9.32 1.03-1.72zM79.7 228.64h-4.57v-2h4.57zm56.3-5.92l-.3 1.9-2.13 2.9-3.4 1.12h-.53v-2h.2l2.5-.82 1.46-2 .2-1.26v-4.5h2zm0-13.8h-2v-9.12h2zm0-18.26h-2v-9.14h2zm0-18.27h-2v-4.58h2z"/><path d="M75.15 228.64h-1.02v-2h1.02zM146.04 184.67l-1.72 1.02-9.32-15.77-9.32 15.76-1.72-1.03L135 166z"/><use xlink:href="#G" transform="matrix(1,0,0,1,81.73611794594757,216.83584834755135) translate(0 14.4)"/><path d="M233 541v-11M233 496v-5" stroke="#000" stroke-width="2" fill="none"/><path d="M219 516c0-7.73 6.27-14 14-14s14 6.27 14 14-6.27 14-14 14-14-6.27-14-14z" stroke="#000" stroke-width="2" fill="#fff"/><path d="M253 516c0-11.05-8.95-20-20-20s-20 8.95-20 20" stroke="#000" stroke-width="2" fill="none"/><path d="M233 541c-.44 0-.8-.36-.8-.8v-9.4c0-.44.36-.8.8-.8.44 0 .8.36.8.8v9.4c0 .44-.36.8-.8.8z" fill="none"/><path d="M233 490v-8.87l-.96-2.96-2.46-1.8-1.58-.24h-4m-8 0h-8m-8 0h-8m-8 0h-8m-8 0h-8m-8 0h-4l-2.95-.97-1.8-2.45-.25-1.57v-3.7m0-7.38v-7.4m0-7.38v-3.7" stroke="#000" stroke-width="2" fill="none"/><path d="M232 491v-1.03h2V491z"/><path d="M153.18 458.94L143 441.72l-10.18 17.22M233 542v2.75m0 5.5v12.93" stroke="#000" stroke-width="2" fill="none"/><path d="M234 542.03h-2V541h2z"/><path d="M222.82 545.82l10.18 17.2 10.18-17.2M383 596h11M428 596h5" stroke="#000" stroke-width="2" fill="none"/><path d="M408 582c7.73 0 14 6.27 14 14s-6.27 14-14 14-14-6.27-14-14 6.27-14 14-14z" stroke="#000" stroke-width="2" fill="#fff"/><path d="M408 616c11.05 0 20-8.95 20-20s-8.95-20-20-20" stroke="#000" stroke-width="2" fill="none"/><path d="M383 596c0-.44.36-.8.8-.8h9.4c.44 0 .8.36.8.8 0 .44-.36.8-.8.8h-9.4c-.44 0-.8-.36-.8-.8z" fill="none"/><path d="M382 596h-4.16m-8.33 0h-8.32m-8.33 0h-4.16l-.15-.05-.05-.14-.05-.12-.14-.05h-4.05m-8.12 0H328m-8.12 0h-4.06" stroke="#000" stroke-width="2" fill="none"/><path d="M383 597h-1.03v-2H383z"/><path d="M333.18 585.44l-17.22 10.18 17.22 10.2M434 596h4.16m8.32 0h8.33m8.33 0h4.16l.14-.06.06-.15.06-.16.15-.06h4.07m8.12 0h8.1m8.12 0h4.06" stroke="#000" stroke-width="2" fill="none"/><path d="M434.03 597H433v-2h1.03z"/><path d="M482.82 605.76l17.22-10.18-17.22-10.18" stroke="#000" stroke-width="2" fill="none"/><path d="M837.75 64.75c0 5.38-4.37 9.75-9.75 9.75s-9.75-4.37-9.75-9.75S822.62 55 828 55s9.75 4.37 9.75 9.75z" stroke="#000" stroke-width="2" fill="#fff"/><path d="M828 74.5v22.3c0 2.76 1.4 6.75 3.13 8.9L853 133m-25-31.2L803 133m0-48.75h50" stroke="#000" stroke-width="2" fill="none"/><path d="M803 60c0-2.76 2.24-5 5-5h40c2.76 0 5 2.24 5 5v90c0 2.76-2.24 5-5 5h-40c-2.76 0-5-2.24-5-5z" fill="none"/><g><use xlink:href="#H" transform="matrix(1,0,0,1,723,132.99999999999997) translate(68.1 14.4)"/><use xlink:href="#I" transform="matrix(1,0,0,1,723,132.99999999999997) translate(69.05 36)"/></g><path d="M233 490v-8.87l.96-2.96 2.46-1.8 1.58-.24h4m8 0h8m8 0h8m8 0h8m8 0h8m8 0h4l2.95-.97 1.8-2.45.25-1.57v-3.6m0-7.2v-7.2m0-7.2v-3.6" stroke="#000" stroke-width="2" fill="none"/><path d="M232 491v-1.03h2V491z"/><path d="M333.18 459.7L323 442.47l-10.18 17.2" stroke="#000" stroke-width="2" fill="none"/><path d="M79.17 228.64h-4.04v-2h4.04zm64.74 0h-8.08v-2h8.1zm16.2 0H152v-2h8.1zm16.18 0h-8.1v-2h8.1zm16.18 0h-8.1v-2h8.1zm16.18 0h-8.1v-2h8.1zm16.2 0h-8.1v-2h8.1zm16.17 0h-8.08v-2h8.1zm16.2 0h-8.1v-2h8.1zm18.13-5.92l-.3 1.9-2.13 2.9-3.4 1.12h-4.2v-2h3.87l2.5-.82 1.46-2 .2-1.26v-4.5h2zm0-13.8h-2v-9.12h2zm0-18.26h-2v-9.14h2zm0-18.27h-2v-4.58h2z"/><path d="M75.15 228.64h-1.02v-2h1.02zM285.37 184.67l-1.72 1.02-9.32-15.77L265 185.7l-1.7-1.03L274.32 166z"/><g><path d="M323.13 265v-11M323.13 220v-5" stroke="#000" stroke-width="2" fill="none"/><path d="M309.13 240c0-7.73 6.26-14 14-14 7.73 0 14 6.27 14 14s-6.27 14-14 14c-7.74 0-14-6.27-14-14z" stroke="#000" stroke-width="2" fill="#fff"/><path d="M343.13 240c0-11.05-8.96-20-20-20-11.05 0-20 8.95-20 20" stroke="#000" stroke-width="2" fill="none"/><path d="M323.13 265c-.45 0-.8-.36-.8-.8v-9.4c0-.44.35-.8.8-.8.44 0 .8.36.8.8v9.4c0 .44-.36.8-.8.8z" fill="none"/></g><path d="M323.13 266v3.1m0 6.24v3.1l-.02.06-.04.02h-.04l-.02.06v4.76m0 9.53v9.53m0 9.53v4.77" stroke="#000" stroke-width="2" fill="none"/><path d="M324.13 266.03h-2V265h2z"/><path d="M312.82 299.34l10.18 17.2 10.18-17.2M323.13 214v-4.86m0-9.72v-4.86l-1.16-2.84-2.8-1.22h-.1l-2.85-1.16-1.22-2.8v-4.76m0-9.3v-4.66" stroke="#000" stroke-width="2" fill="none"/><path d="M322.13 215v-1.03h2V215z"/><path d="M325.18 185.18L315 167.96l-10.18 17.22" stroke="#000" stroke-width="2" fill="none"/><defs><path d="M18-100v-36l175-74v27L42-118l151 64v27" id="J"/><path d="M96-169c-40 0-48 33-48 73s9 75 48 75c24 0 41-14 43-38l32 2c-6 37-31 61-74 61-59 0-76-41-82-99-10-93 101-131 147-64 4 7 5 14 7 22l-32 3c-4-21-16-35-41-35" id="K"/><path d="M100-194c62-1 85 37 85 99 1 63-27 99-86 99S16-35 15-95c0-66 28-99 85-99zM99-20c44 1 53-31 53-75 0-43-8-75-51-75s-53 32-53 75 10 74 51 75" id="L"/><path d="M210-169c-67 3-38 105-44 169h-31v-121c0-29-5-50-35-48C34-165 62-65 56 0H25l-1-190h30c1 10-1 24 2 32 10-44 99-50 107 0 11-21 27-35 58-36 85-2 47 119 55 194h-31v-121c0-29-5-49-35-48" id="M"/><path d="M115-194c55 1 70 41 70 98S169 2 115 4C84 4 66-9 55-30l1 105H24l-1-265h31l2 30c10-21 28-34 59-34zm-8 174c40 0 45-34 45-75s-6-73-45-74c-42 0-51 32-51 76 0 43 10 73 51 73" id="N"/><path d="M117-194c89-4 53 116 60 194h-32v-121c0-31-8-49-39-48C34-167 62-67 57 0H25l-1-190h30c1 10-1 24 2 32 11-22 29-35 61-36" id="O"/><path d="M100-194c63 0 86 42 84 106H49c0 40 14 67 53 68 26 1 43-12 49-29l28 8c-11 28-37 45-77 45C44 4 14-33 15-96c1-61 26-98 85-98zm52 81c6-60-76-77-97-28-3 7-6 17-6 28h103" id="P"/><path d="M59-47c-2 24 18 29 38 22v24C64 9 27 4 27-40v-127H5v-23h24l9-43h21v43h35v23H59v120" id="Q"/><path d="M18-27v-27l151-64-151-65v-27l175 74v36" id="R"/><g id="a"><use transform="matrix(0.05,0,0,0.05,0,0)" xlink:href="#J"/><use transform="matrix(0.05,0,0,0.05,10.5,0)" xlink:href="#J"/><use transform="matrix(0.05,0,0,0.05,21,0)" xlink:href="#K"/><use transform="matrix(0.05,0,0,0.05,30,0)" xlink:href="#L"/><use transform="matrix(0.05,0,0,0.05,40,0)" xlink:href="#M"/><use transform="matrix(0.05,0,0,0.05,54.95,0)" xlink:href="#N"/><use transform="matrix(0.05,0,0,0.05,64.95,0)" xlink:href="#L"/><use transform="matrix(0.05,0,0,0.05,74.95,0)" xlink:href="#O"/><use transform="matrix(0.05,0,0,0.05,84.95,0)" xlink:href="#P"/><use transform="matrix(0.05,0,0,0.05,94.95,0)" xlink:href="#O"/><use transform="matrix(0.05,0,0,0.05,104.95,0)" xlink:href="#Q"/><use transform="matrix(0.05,0,0,0.05,109.95,0)" xlink:href="#R"/><use transform="matrix(0.05,0,0,0.05,120.45,0)" xlink:href="#R"/></g><path d="M194 0L95-120 63-95V0H30v-248h33v124l119-124h40L117-140 236 0h-42" id="S"/><path d="M206 0h-36l-40-164L89 0H53L-1-190h32L70-26l43-164h34l41 164 42-164h31" id="T"/><path d="M24 0v-261h32V0H24" id="U"/><path d="M85-194c31 0 48 13 60 33l-1-100h32l1 261h-30c-2-10 0-23-3-31C134-8 116 4 85 4 32 4 16-35 15-94c0-66 23-100 70-100zm9 24c-40 0-46 34-46 75 0 40 6 74 45 74 42 0 51-32 51-76 0-42-9-74-50-73" id="V"/><path d="M177-190C167-65 218 103 67 71c-23-6-38-20-44-43l32-5c15 47 100 32 89-28v-30C133-14 115 1 83 1 29 1 15-40 15-95c0-56 16-97 71-98 29-1 48 16 59 35 1-10 0-23 2-32h30zM94-22c36 0 50-32 50-73 0-42-14-75-50-75-39 0-46 34-46 75s6 73 46 73" id="W"/><path d="M115-194c53 0 69 39 70 98 0 66-23 100-70 100C84 3 66-7 56-30L54 0H23l1-261h32v101c10-23 28-34 59-34zm-8 174c40 0 45-34 45-75 0-40-5-75-45-74-42 0-51 32-51 76 0 43 10 73 51 73" id="X"/><path d="M141-36C126-15 110 5 73 4 37 3 15-17 15-53c-1-64 63-63 125-63 3-35-9-54-41-54-24 1-41 7-42 31l-33-3c5-37 33-52 76-52 45 0 72 20 72 64v82c-1 20 7 32 28 27v20c-31 9-61-2-59-35zM48-53c0 20 12 33 32 33 41-3 63-29 60-74-43 2-92-5-92 41" id="Y"/><path d="M135-143c-3-34-86-38-87 0 15 53 115 12 119 90S17 21 10-45l28-5c4 36 97 45 98 0-10-56-113-15-118-90-4-57 82-63 122-42 12 7 21 19 24 35" id="Z"/><g id="b"><use transform="matrix(0.05,0,0,0.05,0,0)" xlink:href="#S"/><use transform="matrix(0.05,0,0,0.05,12,0)" xlink:href="#O"/><use transform="matrix(0.05,0,0,0.05,22,0)" xlink:href="#L"/><use transform="matrix(0.05,0,0,0.05,32,0)" xlink:href="#T"/><use transform="matrix(0.05,0,0,0.05,44.95,0)" xlink:href="#U"/><use transform="matrix(0.05,0,0,0.05,48.900000000000006,0)" xlink:href="#P"/><use transform="matrix(0.05,0,0,0.05,58.900000000000006,0)" xlink:href="#V"/><use transform="matrix(0.05,0,0,0.05,68.9,0)" xlink:href="#W"/><use transform="matrix(0.05,0,0,0.05,78.9,0)" xlink:href="#P"/><use transform="matrix(0.05,0,0,0.05,88.9,0)" xlink:href="#X"/><use transform="matrix(0.05,0,0,0.05,98.9,0)" xlink:href="#Y"/><use transform="matrix(0.05,0,0,0.05,108.9,0)" xlink:href="#Z"/><use transform="matrix(0.05,0,0,0.05,117.9,0)" xlink:href="#P"/></g><path d="M232-93c-1 65-40 97-104 97C67 4 28-28 28-90v-158h33c8 89-33 224 67 224 102 0 64-133 71-224h33v155" id="aa"/><path d="M114-163C36-179 61-72 57 0H25l-1-190h30c1 12-1 29 2 39 6-27 23-49 58-41v29" id="ab"/><g id="c"><use transform="matrix(0.05,0,0,0.05,0,0)" xlink:href="#aa"/><use transform="matrix(0.05,0,0,0.05,12.950000000000001,0)" xlink:href="#Z"/><use transform="matrix(0.05,0,0,0.05,21.950000000000003,0)" xlink:href="#P"/><use transform="matrix(0.05,0,0,0.05,31.950000000000003,0)" xlink:href="#ab"/></g><path d="M33 0v-248h34V0H33" id="ac"/><path d="M101-234c-31-9-42 10-38 44h38v23H63V0H32v-167H5v-23h27c-7-52 17-82 69-68v24" id="ad"/><g id="d"><use transform="matrix(0.05,0,0,0.05,0,0)" xlink:href="#ac"/><use transform="matrix(0.05,0,0,0.05,5,0)" xlink:href="#O"/><use transform="matrix(0.05,0,0,0.05,15,0)" xlink:href="#Q"/><use transform="matrix(0.05,0,0,0.05,20,0)" xlink:href="#P"/><use transform="matrix(0.05,0,0,0.05,30,0)" xlink:href="#ab"/><use transform="matrix(0.05,0,0,0.05,35.95,0)" xlink:href="#ad"/><use transform="matrix(0.05,0,0,0.05,40.95,0)" xlink:href="#Y"/><use transform="matrix(0.05,0,0,0.05,50.95,0)" xlink:href="#K"/><use transform="matrix(0.05,0,0,0.05,59.95,0)" xlink:href="#P"/></g><path d="M30 0v-248h187v28H63v79h144v27H63v87h162V0H30" id="ae"/><path d="M24-231v-30h32v30H24zM24 0v-190h32V0H24" id="af"/><g id="e"><use transform="matrix(0.05,0,0,0.05,0,0)" xlink:href="#ae"/><use transform="matrix(0.05,0,0,0.05,12,0)" xlink:href="#V"/><use transform="matrix(0.05,0,0,0.05,22,0)" xlink:href="#af"/><use transform="matrix(0.05,0,0,0.05,25.950000000000003,0)" xlink:href="#Q"/><use transform="matrix(0.05,0,0,0.05,30.950000000000003,0)" xlink:href="#L"/><use transform="matrix(0.05,0,0,0.05,40.95,0)" xlink:href="#ab"/></g><path d="M205 0l-28-72H64L36 0H1l101-248h38L239 0h-34zm-38-99l-47-123c-12 45-31 82-46 123h93" id="ag"/><path d="M30-248c87 1 191-15 191 75 0 78-77 80-158 76V0H30v-248zm33 125c57 0 124 11 124-50 0-59-68-47-124-48v98" id="ah"/><g id="f"><use transform="matrix(0.05,0,0,0.05,0,0)" xlink:href="#ag"/><use transform="matrix(0.05,0,0,0.05,12,0)" xlink:href="#ah"/><use transform="matrix(0.05,0,0,0.05,24,0)" xlink:href="#ac"/></g><g id="g"><use transform="matrix(0.05,0,0,0.05,0,0)" xlink:href="#ag"/><use transform="matrix(0.05,0,0,0.05,12,0)" xlink:href="#O"/><use transform="matrix(0.05,0,0,0.05,22,0)" xlink:href="#O"/><use transform="matrix(0.05,0,0,0.05,32,0)" xlink:href="#L"/><use transform="matrix(0.05,0,0,0.05,42,0)" xlink:href="#Q"/><use transform="matrix(0.05,0,0,0.05,47,0)" xlink:href="#Y"/><use transform="matrix(0.05,0,0,0.05,57,0)" xlink:href="#Q"/><use transform="matrix(0.05,0,0,0.05,62,0)" xlink:href="#af"/><use transform="matrix(0.05,0,0,0.05,65.95,0)" xlink:href="#L"/><use transform="matrix(0.05,0,0,0.05,75.95,0)" xlink:href="#O"/></g><g id="h"><use transform="matrix(0.05,0,0,0.05,0,0)" xlink:href="#ag"/><use transform="matrix(0.05,0,0,0.05,12,0)" xlink:href="#ah"/><use transform="matrix(0.05,0,0,0.05,24,0)" xlink:href="#ac"/></g><path d="M212-179c-10-28-35-45-73-45-59 0-87 40-87 99 0 60 29 101 89 101 43 0 62-24 78-52l27 14C228-24 195 4 139 4 59 4 22-46 18-125c-6-104 99-153 187-111 19 9 31 26 39 46" id="ai"/><g id="i"><use transform="matrix(0.05,0,0,0.05,0,0)" xlink:href="#ai"/><use transform="matrix(0.05,0,0,0.05,12.950000000000001,0)" xlink:href="#L"/><use transform="matrix(0.05,0,0,0.05,22.950000000000003,0)" xlink:href="#O"/><use transform="matrix(0.05,0,0,0.05,32.95,0)" xlink:href="#K"/><use transform="matrix(0.05,0,0,0.05,41.95,0)" xlink:href="#P"/><use transform="matrix(0.05,0,0,0.05,51.95,0)" xlink:href="#N"/><use transform="matrix(0.05,0,0,0.05,61.95,0)" xlink:href="#Q"/></g><path d="M137 0h-34L2-248h35l83 218 83-218h36" id="aj"/><g id="j"><use transform="matrix(0.05,0,0,0.05,0,0)" xlink:href="#aj"/><use transform="matrix(0.05,0,0,0.05,11.65,0)" xlink:href="#af"/><use transform="matrix(0.05,0,0,0.05,15.600000000000001,0)" xlink:href="#P"/><use transform="matrix(0.05,0,0,0.05,25.6,0)" xlink:href="#T"/></g><path d="M185-189c-5-48-123-54-124 2 14 75 158 14 163 119 3 78-121 87-175 55-17-10-28-26-33-46l33-7c5 56 141 63 141-1 0-78-155-14-162-118-5-82 145-84 179-34 5 7 8 16 11 25" id="ak"/><path d="M106-169C34-169 62-67 57 0H25v-261h32l-1 103c12-21 28-36 61-36 89 0 53 116 60 194h-32v-121c2-32-8-49-39-48" id="al"/><g id="k"><use transform="matrix(0.05,0,0,0.05,0,0)" xlink:href="#ak"/><use transform="matrix(0.05,0,0,0.05,12,0)" xlink:href="#P"/><use transform="matrix(0.05,0,0,0.05,22,0)" xlink:href="#Y"/><use transform="matrix(0.05,0,0,0.05,32,0)" xlink:href="#ab"/><use transform="matrix(0.05,0,0,0.05,37.95,0)" xlink:href="#K"/><use transform="matrix(0.05,0,0,0.05,46.95,0)" xlink:href="#al"/></g><g id="l"><use transform="matrix(0.05,0,0,0.05,0,0)" xlink:href="#Y"/><use transform="matrix(0.05,0,0,0.05,10,0)" xlink:href="#O"/><use transform="matrix(0.05,0,0,0.05,20,0)" xlink:href="#V"/></g><path d="M63-220v92h138v28H63V0H30v-248h175v28H63" id="am"/><g id="m"><use transform="matrix(0.05,0,0,0.05,0,0)" xlink:href="#am"/><use transform="matrix(0.05,0,0,0.05,10.950000000000001,0)" xlink:href="#af"/><use transform="matrix(0.05,0,0,0.05,14.9,0)" xlink:href="#U"/><use transform="matrix(0.05,0,0,0.05,18.85,0)" xlink:href="#Q"/><use transform="matrix(0.05,0,0,0.05,23.85,0)" xlink:href="#P"/><use transform="matrix(0.05,0,0,0.05,33.85,0)" xlink:href="#ab"/></g><g id="n"><use transform="matrix(0.05,0,0,0.05,0,0)" xlink:href="#ag"/><use transform="matrix(0.05,0,0,0.05,12,0)" xlink:href="#ab"/><use transform="matrix(0.05,0,0,0.05,17.95,0)" xlink:href="#Q"/><use transform="matrix(0.05,0,0,0.05,22.95,0)" xlink:href="#af"/><use transform="matrix(0.05,0,0,0.05,26.899999999999995,0)" xlink:href="#ad"/><use transform="matrix(0.05,0,0,0.05,31.899999999999995,0)" xlink:href="#Y"/><use transform="matrix(0.05,0,0,0.05,41.9,0)" xlink:href="#K"/><use transform="matrix(0.05,0,0,0.05,50.9,0)" xlink:href="#Q"/><use transform="matrix(0.05,0,0,0.05,55.900000000000006,0)" xlink:href="#Z"/></g><path d="M84 4C-5 8 30-112 23-190h32v120c0 31 7 50 39 49 72-2 45-101 50-169h31l1 190h-30c-1-10 1-25-2-33-11 22-28 36-60 37" id="an"/><path d="M9 0v-24l116-142H16v-24h144v24L44-24h123V0H9" id="ao"/><g id="o"><use transform="matrix(0.05,0,0,0.05,0,0)" xlink:href="#aj"/><use transform="matrix(0.05,0,0,0.05,11.65,0)" xlink:href="#af"/><use transform="matrix(0.05,0,0,0.05,15.600000000000001,0)" xlink:href="#Z"/><use transform="matrix(0.05,0,0,0.05,24.6,0)" xlink:href="#an"/><use transform="matrix(0.05,0,0,0.05,34.6,0)" xlink:href="#Y"/><use transform="matrix(0.05,0,0,0.05,44.6,0)" xlink:href="#U"/><use transform="matrix(0.05,0,0,0.05,48.550000000000004,0)" xlink:href="#af"/><use transform="matrix(0.05,0,0,0.05,52.5,0)" xlink:href="#ao"/><use transform="matrix(0.05,0,0,0.05,61.5,0)" xlink:href="#Y"/><use transform="matrix(0.05,0,0,0.05,71.5,0)" xlink:href="#Q"/><use transform="matrix(0.05,0,0,0.05,76.5,0)" xlink:href="#af"/><use transform="matrix(0.05,0,0,0.05,80.45,0)" xlink:href="#L"/><use transform="matrix(0.05,0,0,0.05,90.45,0)" xlink:href="#O"/><use transform="matrix(0.05,0,0,0.05,100.45,0)" xlink:href="#Z"/></g><path d="M240 0l2-218c-23 76-54 145-80 218h-23L58-218 59 0H30v-248h44l77 211c21-75 51-140 76-211h43V0h-30" id="ap"/><g id="p"><use transform="matrix(0.05,0,0,0.05,0,0)" xlink:href="#ap"/><use transform="matrix(0.05,0,0,0.05,14.950000000000001,0)" xlink:href="#af"/><use transform="matrix(0.05,0,0,0.05,18.900000000000002,0)" xlink:href="#W"/><use transform="matrix(0.05,0,0,0.05,28.900000000000002,0)" xlink:href="#ab"/><use transform="matrix(0.05,0,0,0.05,34.85,0)" xlink:href="#Y"/><use transform="matrix(0.05,0,0,0.05,44.85,0)" xlink:href="#Q"/><use transform="matrix(0.05,0,0,0.05,49.85,0)" xlink:href="#af"/><use transform="matrix(0.05,0,0,0.05,53.800000000000004,0)" xlink:href="#L"/><use transform="matrix(0.05,0,0,0.05,63.800000000000004,0)" xlink:href="#O"/></g><g id="q"><use transform="matrix(0.05,0,0,0.05,0,0)" xlink:href="#ap"/><use transform="matrix(0.05,0,0,0.05,14.950000000000001,0)" xlink:href="#Y"/><use transform="matrix(0.05,0,0,0.05,24.950000000000003,0)" xlink:href="#O"/><use transform="matrix(0.05,0,0,0.05,34.95,0)" xlink:href="#Y"/><use transform="matrix(0.05,0,0,0.05,44.95,0)" xlink:href="#W"/><use transform="matrix(0.05,0,0,0.05,54.95,0)" xlink:href="#P"/><use transform="matrix(0.05,0,0,0.05,64.95,0)" xlink:href="#M"/><use transform="matrix(0.05,0,0,0.05,79.9,0)" xlink:href="#P"/><use transform="matrix(0.05,0,0,0.05,89.9,0)" xlink:href="#O"/><use transform="matrix(0.05,0,0,0.05,99.9,0)" xlink:href="#Q"/></g><path d="M233-177c-1 41-23 64-60 70L243 0h-38l-65-103H63V0H30v-248c88 3 205-21 203 71zM63-129c60-2 137 13 137-47 0-61-80-42-137-45v92" id="aq"/><path d="M140-251c81 0 123 46 123 126C263-53 228-8 163 1c7 30 30 48 69 40v23c-55 16-95-15-103-61C56-3 17-48 17-125c0-80 42-126 123-126zm0 227c63 0 89-41 89-101s-29-99-89-99c-61 0-89 39-89 99S79-25 140-24" id="ar"/><path d="M30 0v-248h33v221h125V0H30" id="as"/><g id="r"><use transform="matrix(0.05,0,0,0.05,0,0)" xlink:href="#ak"/><use transform="matrix(0.05,0,0,0.05,12,0)" xlink:href="#ah"/><use transform="matrix(0.05,0,0,0.05,22.65,0)" xlink:href="#ag"/><use transform="matrix(0.05,0,0,0.05,34.65,0)" xlink:href="#aq"/><use transform="matrix(0.05,0,0,0.05,47.6,0)" xlink:href="#ar"/><use transform="matrix(0.05,0,0,0.05,61.6,0)" xlink:href="#as"/></g><g id="s"><use transform="matrix(0.05,0,0,0.05,0,0)" xlink:href="#ae"/><use transform="matrix(0.05,0,0,0.05,12,0)" xlink:href="#O"/><use transform="matrix(0.05,0,0,0.05,22,0)" xlink:href="#V"/><use transform="matrix(0.05,0,0,0.05,32,0)" xlink:href="#N"/><use transform="matrix(0.05,0,0,0.05,42,0)" xlink:href="#L"/><use transform="matrix(0.05,0,0,0.05,52,0)" xlink:href="#af"/><use transform="matrix(0.05,0,0,0.05,55.95,0)" xlink:href="#O"/><use transform="matrix(0.05,0,0,0.05,65.95,0)" xlink:href="#Q"/></g><path d="M197 0v-115H63V0H30v-248h33v105h134v-105h34V0h-34" id="at"/><path d="M127-220V0H93v-220H8v-28h204v28h-85" id="au"/><g id="t"><use transform="matrix(0.05,0,0,0.05,0,0)" xlink:href="#at"/><use transform="matrix(0.05,0,0,0.05,12.950000000000001,0)" xlink:href="#au"/><use transform="matrix(0.05,0,0,0.05,23.900000000000002,0)" xlink:href="#au"/><use transform="matrix(0.05,0,0,0.05,34.85,0)" xlink:href="#ah"/></g><g id="u"><use transform="matrix(0.05,0,0,0.05,0,0)" xlink:href="#at"/><use transform="matrix(0.05,0,0,0.05,12.950000000000001,0)" xlink:href="#an"/><use transform="matrix(0.05,0,0,0.05,22.950000000000003,0)" xlink:href="#M"/><use transform="matrix(0.05,0,0,0.05,37.900000000000006,0)" xlink:href="#Y"/><use transform="matrix(0.05,0,0,0.05,47.900000000000006,0)" xlink:href="#O"/></g><g id="v"><use transform="matrix(0.05,0,0,0.05,0,0)" xlink:href="#aa"/><use transform="matrix(0.05,0,0,0.05,12.950000000000001,0)" xlink:href="#Z"/><use transform="matrix(0.05,0,0,0.05,21.950000000000003,0)" xlink:href="#P"/><use transform="matrix(0.05,0,0,0.05,31.950000000000003,0)" xlink:href="#ab"/><use transform="matrix(0.05,0,0,0.05,37.900000000000006,0)" xlink:href="#Z"/></g><path d="M140-251c81 0 123 46 123 126C263-46 219 4 140 4 59 4 17-45 17-125s42-126 123-126zm0 227c63 0 89-41 89-101s-29-99-89-99c-61 0-89 39-89 99S79-25 140-24" id="av"/><g id="w"><use transform="matrix(0.05,0,0,0.05,0,0)" xlink:href="#av"/><use transform="matrix(0.05,0,0,0.05,14,0)" xlink:href="#N"/><use transform="matrix(0.05,0,0,0.05,24,0)" xlink:href="#P"/><use transform="matrix(0.05,0,0,0.05,34,0)" xlink:href="#ab"/><use transform="matrix(0.05,0,0,0.05,39.95,0)" xlink:href="#Y"/><use transform="matrix(0.05,0,0,0.05,49.95,0)" xlink:href="#Q"/><use transform="matrix(0.05,0,0,0.05,54.95,0)" xlink:href="#L"/><use transform="matrix(0.05,0,0,0.05,64.95,0)" xlink:href="#ab"/></g><path d="M108 0H70L1-190h34L89-25l56-165h34" id="aw"/><g id="x"><use transform="matrix(0.05,0,0,0.05,0,0)" xlink:href="#aq"/><use transform="matrix(0.05,0,0,0.05,12.950000000000001,0)" xlink:href="#P"/><use transform="matrix(0.05,0,0,0.05,22.950000000000003,0)" xlink:href="#aw"/><use transform="matrix(0.05,0,0,0.05,31.950000000000003,0)" xlink:href="#af"/><use transform="matrix(0.05,0,0,0.05,35.900000000000006,0)" xlink:href="#P"/><use transform="matrix(0.05,0,0,0.05,45.900000000000006,0)" xlink:href="#T"/><use transform="matrix(0.05,0,0,0.05,58.85,0)" xlink:href="#P"/><use transform="matrix(0.05,0,0,0.05,68.85000000000001,0)" xlink:href="#ab"/></g><g id="y"><use transform="matrix(0.05,0,0,0.05,0,0)" xlink:href="#at"/><use transform="matrix(0.05,0,0,0.05,12.950000000000001,0)" xlink:href="#an"/><use transform="matrix(0.05,0,0,0.05,22.950000000000003,0)" xlink:href="#M"/><use transform="matrix(0.05,0,0,0.05,37.900000000000006,0)" xlink:href="#Y"/><use transform="matrix(0.05,0,0,0.05,47.900000000000006,0)" xlink:href="#O"/></g><g id="z"><use transform="matrix(0.05,0,0,0.05,0,0)" xlink:href="#ag"/><use transform="matrix(0.05,0,0,0.05,12,0)" xlink:href="#O"/><use transform="matrix(0.05,0,0,0.05,22,0)" xlink:href="#O"/><use transform="matrix(0.05,0,0,0.05,32,0)" xlink:href="#L"/><use transform="matrix(0.05,0,0,0.05,42,0)" xlink:href="#Q"/><use transform="matrix(0.05,0,0,0.05,47,0)" xlink:href="#Y"/><use transform="matrix(0.05,0,0,0.05,57,0)" xlink:href="#Q"/><use transform="matrix(0.05,0,0,0.05,62,0)" xlink:href="#L"/><use transform="matrix(0.05,0,0,0.05,72,0)" xlink:href="#ab"/></g><g id="A"><use transform="matrix(0.05,0,0,0.05,0,0)" xlink:href="#ap"/><use transform="matrix(0.05,0,0,0.05,14.950000000000001,0)" xlink:href="#Y"/><use transform="matrix(0.05,0,0,0.05,24.950000000000003,0)" xlink:href="#O"/><use transform="matrix(0.05,0,0,0.05,34.95,0)" xlink:href="#Y"/><use transform="matrix(0.05,0,0,0.05,44.95,0)" xlink:href="#W"/><use transform="matrix(0.05,0,0,0.05,54.95,0)" xlink:href="#P"/><use transform="matrix(0.05,0,0,0.05,64.95,0)" xlink:href="#ab"/></g><path d="M179-190L93 31C79 59 56 82 12 73V49c39 6 53-20 64-50L1-190h34L92-34l54-156h33" id="ax"/><g id="B"><use transform="matrix(0.05,0,0,0.05,0,0)" xlink:href="#ak"/><use transform="matrix(0.05,0,0,0.05,12,0)" xlink:href="#ax"/><use transform="matrix(0.05,0,0,0.05,21,0)" xlink:href="#Z"/><use transform="matrix(0.05,0,0,0.05,30,0)" xlink:href="#Q"/><use transform="matrix(0.05,0,0,0.05,35,0)" xlink:href="#P"/><use transform="matrix(0.05,0,0,0.05,45,0)" xlink:href="#M"/></g><g id="C"><use transform="matrix(0.05,0,0,0.05,0,0)" xlink:href="#ag"/><use transform="matrix(0.05,0,0,0.05,12,0)" xlink:href="#O"/><use transform="matrix(0.05,0,0,0.05,22,0)" xlink:href="#O"/><use transform="matrix(0.05,0,0,0.05,32,0)" xlink:href="#L"/><use transform="matrix(0.05,0,0,0.05,42,0)" xlink:href="#Q"/><use transform="matrix(0.05,0,0,0.05,47,0)" xlink:href="#Y"/><use transform="matrix(0.05,0,0,0.05,57,0)" xlink:href="#Q"/><use transform="matrix(0.05,0,0,0.05,62,0)" xlink:href="#L"/><use transform="matrix(0.05,0,0,0.05,72,0)" xlink:href="#ab"/></g><g id="D"><use transform="matrix(0.05,0,0,0.05,0,0)" xlink:href="#au"/><use transform="matrix(0.05,0,0,0.05,10.3,0)" xlink:href="#ab"/><use transform="matrix(0.05,0,0,0.05,16.25,0)" xlink:href="#Y"/><use transform="matrix(0.05,0,0,0.05,26.25,0)" xlink:href="#O"/><use transform="matrix(0.05,0,0,0.05,36.25,0)" xlink:href="#Z"/><use transform="matrix(0.05,0,0,0.05,45.25,0)" xlink:href="#ad"/><use transform="matrix(0.05,0,0,0.05,50.25,0)" xlink:href="#L"/><use transform="matrix(0.05,0,0,0.05,60.25,0)" xlink:href="#ab"/><use transform="matrix(0.05,0,0,0.05,66.2,0)" xlink:href="#M"/><use transform="matrix(0.05,0,0,0.05,81.15,0)" xlink:href="#Y"/><use transform="matrix(0.05,0,0,0.05,91.15,0)" xlink:href="#Q"/><use transform="matrix(0.05,0,0,0.05,96.15,0)" xlink:href="#af"/><use transform="matrix(0.05,0,0,0.05,100.10000000000001,0)" xlink:href="#L"/><use transform="matrix(0.05,0,0,0.05,110.10000000000001,0)" xlink:href="#O"/></g><g id="E"><use transform="matrix(0.05,0,0,0.05,0,0)" xlink:href="#aq"/><use transform="matrix(0.05,0,0,0.05,12.950000000000001,0)" xlink:href="#P"/><use transform="matrix(0.05,0,0,0.05,22.950000000000003,0)" xlink:href="#P"/><use transform="matrix(0.05,0,0,0.05,32.95,0)" xlink:href="#O"/><use transform="matrix(0.05,0,0,0.05,42.95,0)" xlink:href="#W"/><use transform="matrix(0.05,0,0,0.05,52.95,0)" xlink:href="#af"/><use transform="matrix(0.05,0,0,0.05,56.900000000000006,0)" xlink:href="#O"/><use transform="matrix(0.05,0,0,0.05,66.9,0)" xlink:href="#P"/><use transform="matrix(0.05,0,0,0.05,76.9,0)" xlink:href="#P"/><use transform="matrix(0.05,0,0,0.05,86.9,0)" xlink:href="#ab"/><use transform="matrix(0.05,0,0,0.05,92.85000000000001,0)" xlink:href="#af"/><use transform="matrix(0.05,0,0,0.05,96.80000000000001,0)" xlink:href="#O"/><use transform="matrix(0.05,0,0,0.05,106.80000000000001,0)" xlink:href="#W"/></g><g id="F"><use transform="matrix(0.05,0,0,0.05,0,0)" xlink:href="#au"/><use transform="matrix(0.05,0,0,0.05,8.950000000000001,0)" xlink:href="#L"/><use transform="matrix(0.05,0,0,0.05,18.950000000000003,0)" xlink:href="#L"/><use transform="matrix(0.05,0,0,0.05,28.950000000000003,0)" xlink:href="#U"/></g><g id="G"><use transform="matrix(0.05,0,0,0.05,0,0)" xlink:href="#aq"/><use transform="matrix(0.05,0,0,0.05,12.950000000000001,0)" xlink:href="#ae"/><use transform="matrix(0.05,0,0,0.05,24.950000000000003,0)" xlink:href="#ak"/><use transform="matrix(0.05,0,0,0.05,36.95,0)" xlink:href="#au"/></g><g id="H"><use transform="matrix(0.05,0,0,0.05,0,0)" xlink:href="#ap"/><use transform="matrix(0.05,0,0,0.05,14.950000000000001,0)" xlink:href="#af"/><use transform="matrix(0.05,0,0,0.05,18.900000000000002,0)" xlink:href="#W"/><use transform="matrix(0.05,0,0,0.05,28.900000000000002,0)" xlink:href="#ab"/><use transform="matrix(0.05,0,0,0.05,34.85,0)" xlink:href="#Y"/><use transform="matrix(0.05,0,0,0.05,44.85,0)" xlink:href="#Q"/><use transform="matrix(0.05,0,0,0.05,49.85,0)" xlink:href="#af"/><use transform="matrix(0.05,0,0,0.05,53.800000000000004,0)" xlink:href="#L"/><use transform="matrix(0.05,0,0,0.05,63.800000000000004,0)" xlink:href="#O"/></g><g id="I"><use transform="matrix(0.05,0,0,0.05,0,0)" xlink:href="#ae"/><use transform="matrix(0.05,0,0,0.05,12,0)" xlink:href="#O"/><use transform="matrix(0.05,0,0,0.05,22,0)" xlink:href="#W"/><use transform="matrix(0.05,0,0,0.05,32,0)" xlink:href="#af"/><use transform="matrix(0.05,0,0,0.05,35.95,0)" xlink:href="#O"/><use transform="matrix(0.05,0,0,0.05,45.95,0)" xlink:href="#P"/><use transform="matrix(0.05,0,0,0.05,55.95,0)" xlink:href="#P"/><use transform="matrix(0.05,0,0,0.05,65.95,0)" xlink:href="#ab"/></g></defs></g></svg>