<svg xmlns="http://www.w3.org/2000/svg" xmlns:xlink="http://www.w3.org/1999/xlink" xmlns:lucid="lucid" width="609.88" height="875.11"><g transform="translate(0 0)" lucid:page-tab-id="0_0"><path d="M397 29h178c2.76 0 5 2.24 5 5v424c0 2.76-2.24 5-5 5H90c-2.76 0-5-2.24-5-5V8c0-2.76 2.24-5 5-5h287c2.76 0 6.12 1.94 7.5 4.33zM85 29h312" stroke="#000" stroke-width="2" fill="#fff"/><use xlink:href="#a" transform="matrix(1,0,0,1,93.00000000000006,2.999999999999943) translate(0 16.6)"/><use xlink:href="#b" transform="matrix(1,0,0,1,93.00000000000006,2.999999999999943) translate(34 16.6)"/><path d="M247.87 69h76c2.76 0 5 2.24 5 5v144c0 2.76-2.24 5-5 5h-210c-2.76 0-5-2.24-5-5V48c0-2.76 2.24-5 5-5h122c2.76 0 5.6 2.16 6.3 4.83zm-139 0h139" stroke="#000" stroke-width="2" fill="#fff"/><use xlink:href="#c" transform="matrix(1,0,0,1,116.87352345648887,43) translate(0 16.6)"/><use xlink:href="#d" transform="matrix(1,0,0,1,116.87352345648887,43) translate(53.550000000000004 16.6)"/><path d="M392 289h163c2.76 0 5 2.24 5 5v144c0 2.76-2.24 5-5 5H110c-2.76 0-5-2.24-5-5V268c0-2.76 2.24-5 5-5h263c2.76 0 6.06 1.97 7.37 4.4zm-287 0h287" stroke="#000" stroke-width="2" fill="#fff"/><use xlink:href="#e" transform="matrix(1,0,0,1,113.00000000000006,263) translate(0 16.6)"/><use xlink:href="#f" transform="matrix(1,0,0,1,113.00000000000006,263) translate(31.950000000000003 16.6)"/><use xlink:href="#g" transform="matrix(1,0,0,1,113.00000000000006,263) translate(80.85000000000001 16.6)"/><use xlink:href="#h" transform="matrix(1,0,0,1,113.00000000000006,263) translate(175.75 16.6)"/><path d="M396 576.9h178c2.76 0 5 2.25 5 5v284c0 2.77-2.24 5-5 5H89c-2.76 0-5-2.23-5-5v-310c0-2.75 2.24-5 5-5h287c2.76 0 6.12 1.95 7.5 4.34zm-312 0h312" stroke="#000" stroke-width="2" fill="#fff"/><use xlink:href="#i" transform="matrix(1,0,0,1,92,550.9075450426542) translate(0 16.6)"/><path d="M146 735.9c0-2.75 2.24-5 5-5h150c2.76 0 5 2.25 5 5v110c0 2.77-2.24 5-5 5H151c-2.76 0-5-2.23-5-5z" stroke="#000" stroke-width="2" fill="#fff"/><path d="M296 740.9h-15v20h15z" stroke="#000" fill="#fff"/><path d="M286 744.24h-10v3.33h10zm0 10h-10v3.33h10z" stroke="#000" fill="#fff"/><use xlink:href="#j" transform="matrix(1,0,0,1,146,730.9075450426542) translate(14.53000000000001 51.9)"/><use xlink:href="#k" transform="matrix(1,0,0,1,146,730.9075450426542) translate(20.029999999999994 73.5)"/><use xlink:href="#l" transform="matrix(1,0,0,1,146,730.9075450426542) translate(110.98 73.5)"/><path d="M370 595.9c0-2.75 2.24-5 5-5h150c2.76 0 5 2.25 5 5v110c0 2.77-2.24 5-5 5H375c-2.76 0-5-2.23-5-5z" stroke="#000" stroke-width="2" fill="#fff"/><path d="M520 600.9h-15v20h15z" stroke="#000" fill="#fff"/><path d="M510 604.24h-10v3.33h10zm0 10h-10v3.33h10z" stroke="#000" fill="#fff"/><use xlink:href="#j" transform="matrix(1,0,0,1,370,590.9075450426542) translate(14.53000000000001 49.41)"/><use xlink:href="#m" transform="matrix(1,0,0,1,370,590.9075450426542) translate(43.10499999999999 71.01)"/><use xlink:href="#n" transform="matrix(1,0,0,1,370,590.9075450426542) translate(27.554999999999993 92.61000000000001)"/><path d="M146 88.36c0-2.76 2.24-5 5-5h150c2.76 0 5 2.24 5 5v110c0 2.77-2.24 5-5 5H151c-2.76 0-5-2.23-5-5z" stroke="#000" stroke-width="2" fill="#fff"/><path d="M296 93.36h-15v20h15z" stroke="#000" fill="#fff"/><path d="M286 96.7h-10v3.33h10zm0 10h-10v3.33h10z" stroke="#000" fill="#fff"/><use xlink:href="#j" transform="matrix(1,0,0,1,146,83.36415165244864) translate(14.53000000000001 49.41)"/><use xlink:href="#o" transform="matrix(1,0,0,1,146,83.36415165244864) translate(40.55499999999999 71.01)"/><use xlink:href="#p" transform="matrix(1,0,0,1,146,83.36415165244864) translate(40.529999999999994 92.61000000000001)"/><path d="M146 308c0-2.76 2.24-5 5-5h150c2.76 0 5 2.24 5 5v110c0 2.76-2.24 5-5 5H151c-2.76 0-5-2.24-5-5z" stroke="#000" stroke-width="2" fill="#fff"/><path d="M296 313h-15v20h15z" stroke="#000" fill="#fff"/><path d="M286 316.33h-10v3.34h10zm0 10h-10v3.34h10z" stroke="#000" fill="#fff"/><use xlink:href="#q" transform="matrix(1,0,0,1,146,303) translate(42.07999999999999 63.15)"/><use xlink:href="#r" transform="matrix(1,0,0,1,146,303) translate(80.97999999999999 63.15)"/><path d="M40 473v-11M40 428v-5" stroke="#000" stroke-width="2" fill="none"/><path d="M26 448c0-7.73 6.27-14 14-14s14 6.27 14 14-6.27 14-14 14-14-6.27-14-14z" stroke="#000" stroke-width="2" fill="#fff"/><path d="M60 448c0-11.05-8.95-20-20-20s-20 8.95-20 20" stroke="#000" stroke-width="2" fill="none"/><path d="M40 473c-.44 0-.8-.36-.8-.8v-9.4c0-.44.36-.8.8-.8.44 0 .8.36.8.8v9.4c0 .44-.36.8-.8.8z" fill="none"/><path d="M41 785.75l.82 2.5 2 1.45 1.26.2h4v2h-4.16l-1.9-.3-2.9-2.12-1.12-3.4v-4.28h2zm24.45 6.16h-8.18v-2h8.18zm16.37 0h-8.18v-2h8.18zm16.36 0H90v-2h8.18zm16.37 0h-8.2v-2h8.2zm16.36 0h-8.17v-2h8.18zm12.28 0h-4.1v-2h4.1zM41 773.6h-2v-8.2h2zm0-16.42h-2v-8.2h2zm0-16.42h-2v-8.2h2zm0-16.4h-2v-8.22h2zm0-16.43h-2v-8.2h2zm0-16.42h-2v-8.2h2zm0-16.4h-2v-8.2h2zm0-16.42h-2v-8.2h2zm0-16.4h-2v-8.22h2zm0-16.43h-2v-8.2h2zm0-16.42h-2v-8.2h2zm0-16.4h-2v-8.22h2zm0-16.43h-2v-8.2h2zm0-16.42h-2v-8.2h2zm0-16.4h-2v-8.22h2zm0-16.43h-2v-8.2h2zm0-36.18h-2v-4.86h2zm0-13.07h-2V474h2z"/><path d="M41 474.03h-2V473h2zM145 790.9l-18.67 11.05-1.02-1.72 15.77-9.32-15.76-9.3 1.03-1.73z"/><use xlink:href="#s" transform="matrix(1,0,0,1,16.049999999999997,491.17219378104085) translate(0 14.4)"/><path d="M40 422v-4.02m0-8.05v-8.05m0-8.05v-8.05m0-8.04v-8.05m0-8.06v-8.05m0-8.06v-8.05m0-8.05v-8.05m0-8.05v-8.05m0-8.05v-8.04m0-8.04v-8.05m0-8.04V257m0-8.03v-8.05m0-8.05v-8.05m0-8.05v-8.04m0-8.05v-8.05m0-8.05v-8.05m0-8.05v-8.04m0-8.05v-4.04l.96-2.95 2.46-1.78 1.58-.26h4.1m8.17 0h8.18m8.2 0h8.17m8.18 0h8.18m8.18 0h8.2m8.17 0h8.18m8.2 0h4.08" stroke="#000" stroke-width="2" fill="none"/><path d="M39 423v-1.03h2V423z"/><path d="M125.82 153.55l17.22-10.2-17.22-10.17" stroke="#000" stroke-width="2" fill="none"/><path d="M370 308c0-2.76 2.24-5 5-5h150c2.76 0 5 2.24 5 5v110c0 2.76-2.24 5-5 5H375c-2.76 0-5-2.24-5-5z" stroke="#000" stroke-width="2" fill="#fff"/><path d="M520 313h-15v20h15z" stroke="#000" fill="#fff"/><path d="M510 316.33h-10v3.34h10zm0 10h-10v3.34h10z" stroke="#000" fill="#fff"/><use xlink:href="#q" transform="matrix(1,0,0,1,370,303) translate(32.605 51.9)"/><use xlink:href="#t" transform="matrix(1,0,0,1,370,303) translate(71.505 51.9)"/><use xlink:href="#u" transform="matrix(1,0,0,1,370,303) translate(27.554999999999993 73.5)"/><path d="M370 88.36c0-2.76 2.24-5 5-5h150c2.76 0 5 2.24 5 5v110c0 2.77-2.24 5-5 5H375c-2.76 0-5-2.23-5-5z" stroke="#000" stroke-width="2" fill="#fff"/><path d="M520 93.36h-15v20h15z" stroke="#000" fill="#fff"/><path d="M510 96.7h-10v3.33h10zm0 10h-10v3.33h10z" stroke="#000" fill="#fff"/><use xlink:href="#v" transform="matrix(1,0,0,1,370,83.36415165244864) translate(17.12999999999999 63.15)"/><use xlink:href="#w" transform="matrix(1,0,0,1,370,83.36415165244864) translate(71.07999999999998 63.15)"/><path d="M226 500v11M226 545v5" stroke="#000" stroke-width="2" fill="none"/><path d="M240 525c0 7.73-6.27 14-14 14s-14-6.27-14-14 6.27-14 14-14 14 6.27 14 14z" stroke="#000" stroke-width="2" fill="#fff"/><path d="M206 525c0 11.05 8.95 20 20 20s20-8.95 20-20" stroke="#000" stroke-width="2" fill="none"/><path d="M226 500c.44 0 .8.36.8.8v9.4c0 .44-.36.8-.8.8-.44 0-.8-.36-.8-.8v-9.4c0-.44.36-.8.8-.8z" fill="none"/><path d="M146 595.9c0-2.75 2.24-5 5-5h150c2.76 0 5 2.25 5 5v110c0 2.77-2.24 5-5 5H151c-2.76 0-5-2.23-5-5z" stroke="#000" stroke-width="2" fill="#fff"/><path d="M296 600.9h-15v20h15z" stroke="#000" fill="#fff"/><path d="M286 604.24h-10v3.33h10zm0 10h-10v3.33h10z" stroke="#000" fill="#fff"/><use xlink:href="#j" transform="matrix(1,0,0,1,146,590.9075450426542) translate(14.53000000000001 51.9)"/><use xlink:href="#x" transform="matrix(1,0,0,1,146,590.9075450426542) translate(16.055 73.5)"/><path d="M370 735.9c0-2.75 2.24-5 5-5h150c2.76 0 5 2.25 5 5v110c0 2.77-2.24 5-5 5H375c-2.76 0-5-2.23-5-5z" stroke="#000" stroke-width="2" fill="#fff"/><path d="M520 740.9h-15v20h15z" stroke="#000" fill="#fff"/><path d="M510 744.24h-10v3.33h10zm0 10h-10v3.33h10z" stroke="#000" fill="#fff"/><g><use xlink:href="#j" transform="matrix(1,0,0,1,370,730.9075450426542) translate(14.53000000000001 51.9)"/><use xlink:href="#y" transform="matrix(1,0,0,1,370,730.9075450426542) translate(61.505 73.5)"/></g><path d="M535.94 791.9H532v-2h3.94zm15.75 0h-7.9v-2h7.9zm15.74 0h-7.88v-2h7.88zm15.75 0h-7.9v-2h7.9zM601 786l-.3 1.88-2.13 2.9-3.4 1.13h-4.1v-2h3.77l2.5-.8 1.46-2 .2-1.27v-3.9h2zm0-12.05h-2v-7.97h2zm0-15.93h-2v-7.97h2zm0-15.94h-2v-7.97h2zm0-15.94h-2v-7.97h2zm0-15.94h-2v-7.97h2zm0-15.94h-2v-7.97h2zm0-15.94h-2v-7.97h2zm0-15.94h-2v-7.97h2zm0-15.94h-2v-7.96h2zm0-15.93h-2v-7.96h2zm0-15.93h-2v-7.97h2zm0-15.94h-2v-7.97h2zm0-15.94h-2v-7.98h2zm0-15.95h-2v-7.97h2zm0-15.94h-2v-7.96h2zm0-15.93h-2v-7.96h2zm0-15.93h-2v-7.97h2zm0-15.94h-2v-7.97h2zm0-15.94h-2v-7.97h2zm0-15.94h-2v-7.97h2zm0-15.94h-2v-7.97h2zm0-15.94h-2v-7.97h2zm0-15.94h-2v-7.96h2zm0-15.93h-2v-7.97h2zm0-15.94h-2v-7.97h2zm0-15.94h-2v-7.98h2zm0-15.95h-2v-7.97h2zm0-15.94h-2v-7.96h2zm0-15.93h-2v-7.97h2zm0-15.94h-2v-7.96h2zm0-15.93h-2v-7.97h2zm0-15.94h-2v-7.97h2zm0-15.94h-2v-7.97h2zm0-15.94h-2V240h2zm0-15.94h-2v-7.97h2zm0-15.94h-2v-7.97h2zm0-15.94h-2v-7.96h2zm0-15.93h-2v-7.97h2zm0-15.94h-2v-7.98h2zm-4.02-25.63l2.9 2.12 1.12 3.4v4.15h-2v-3.83l-.82-2.5-2-1.45-1.26-.2h-3.8v-2h3.96zm-13.64 1.7h-7.77v-2h7.77zm-15.54 0h-7.78v-2h7.78zm-15.55 0h-7.77v-2h7.77zm-15.55 0h-3.88v-2h3.88z"/><path d="M532.03 791.9H531v-2h1.03zM550.7 134.04l-15.77 9.32 15.76 9.32-1.03 1.73L531 143.37l18.67-11.04zM227 499h-2v-1.87h2zm0-25.6h-2v-7.33h2zm0-14.65h-2v-7.32h2zm0-14.64h-2v-7.3h2zm0-14.62h-2v-3.66h2z"/><path d="M227 500h-2v-1.03h2zM237.04 442.67l-1.72 1.02-9.32-15.77-9.32 15.76-1.72-1.03L226 424z"/><g><use xlink:href="#q" transform="matrix(1,0,0,1,165.77499999999998,475.53333333333336) translate(0 14.4)"/><use xlink:href="#z" transform="matrix(1,0,0,1,165.77499999999998,475.53333333333336) translate(38.900000000000006 14.4)"/><use xlink:href="#A" transform="matrix(1,0,0,1,165.77499999999998,475.53333333333336) translate(91.45000000000002 14.4)"/></g><path d="M226 551v4.64m0 9.27v9.28m0 9.27v4.64" stroke="#000" stroke-width="2" fill="none"/><path d="M227 551.03h-2V550h2z"/><path d="M215.82 570.73l10.18 17.2 10.18-17.2" stroke="#000" stroke-width="2" fill="none"/><g><path d="M450 500v11M450 545v5" stroke="#000" stroke-width="2" fill="none"/><path d="M464 525c0 7.73-6.27 14-14 14s-14-6.27-14-14 6.27-14 14-14 14 6.27 14 14z" stroke="#000" stroke-width="2" fill="#fff"/><path d="M430 525c0 11.05 8.95 20 20 20s20-8.95 20-20" stroke="#000" stroke-width="2" fill="none"/><path d="M450 500c.44 0 .8.36.8.8v9.4c0 .44-.36.8-.8.8-.44 0-.8-.36-.8-.8v-9.4c0-.44.36-.8.8-.8z" fill="none"/></g><path d="M451 499h-2v-3.2h2zm0-25.6h-2v-7.33h2zm0-14.65h-2v-7.32h2zm0-14.64h-2v-7.3h2zm0-14.62h-2v-3.66h2z"/><path d="M451 500h-2v-1.03h2zM461.04 442.67l-1.72 1.02-9.32-15.77-9.32 15.76-1.72-1.03L450 424z"/><g><use xlink:href="#q" transform="matrix(1,0,0,1,389.775,474.2) translate(0 14.4)"/><use xlink:href="#z" transform="matrix(1,0,0,1,389.775,474.2) translate(38.900000000000006 14.4)"/><use xlink:href="#A" transform="matrix(1,0,0,1,389.775,474.2) translate(91.45000000000002 14.4)"/></g><path d="M450 551v4.64m0 9.27v9.28m0 9.27v4.64" stroke="#000" stroke-width="2" fill="none"/><path d="M451 551.03h-2V550h2z"/><path d="M439.82 570.73l10.18 17.2 10.18-17.2" stroke="#000" stroke-width="2" fill="none"/><defs><path d="M33 0v-248h34V0H33" id="B"/><path d="M185-189c-5-48-123-54-124 2 14 75 158 14 163 119 3 78-121 87-175 55-17-10-28-26-33-46l33-7c5 56 141 63 141-1 0-78-155-14-162-118-5-82 145-84 179-34 5 7 8 16 11 25" id="C"/><path d="M137 0h-34L2-248h35l83 218 83-218h36" id="D"/><g id="a"><use transform="matrix(0.05,0,0,0.05,0,0)" xlink:href="#B"/><use transform="matrix(0.05,0,0,0.05,5,0)" xlink:href="#C"/><use transform="matrix(0.05,0,0,0.05,17,0)" xlink:href="#D"/></g><path d="M30 0v-248h187v28H63v79h144v27H63v87h162V0H30" id="E"/><path d="M117-194c89-4 53 116 60 194h-32v-121c0-31-8-49-39-48C34-167 62-67 57 0H25l-1-190h30c1 10-1 24 2 32 11-22 29-35 61-36" id="F"/><path d="M108 0H70L1-190h34L89-25l56-165h34" id="G"/><path d="M24-231v-30h32v30H24zM24 0v-190h32V0H24" id="H"/><path d="M114-163C36-179 61-72 57 0H25l-1-190h30c1 12-1 29 2 39 6-27 23-49 58-41v29" id="I"/><path d="M100-194c62-1 85 37 85 99 1 63-27 99-86 99S16-35 15-95c0-66 28-99 85-99zM99-20c44 1 53-31 53-75 0-43-8-75-51-75s-53 32-53 75 10 74 51 75" id="J"/><path d="M210-169c-67 3-38 105-44 169h-31v-121c0-29-5-50-35-48C34-165 62-65 56 0H25l-1-190h30c1 10-1 24 2 32 10-44 99-50 107 0 11-21 27-35 58-36 85-2 47 119 55 194h-31v-121c0-29-5-49-35-48" id="K"/><path d="M100-194c63 0 86 42 84 106H49c0 40 14 67 53 68 26 1 43-12 49-29l28 8c-11 28-37 45-77 45C44 4 14-33 15-96c1-61 26-98 85-98zm52 81c6-60-76-77-97-28-3 7-6 17-6 28h103" id="L"/><path d="M59-47c-2 24 18 29 38 22v24C64 9 27 4 27-40v-127H5v-23h24l9-43h21v43h35v23H59v120" id="M"/><g id="b"><use transform="matrix(0.05,0,0,0.05,0,0)" xlink:href="#E"/><use transform="matrix(0.05,0,0,0.05,12,0)" xlink:href="#F"/><use transform="matrix(0.05,0,0,0.05,22,0)" xlink:href="#G"/><use transform="matrix(0.05,0,0,0.05,31,0)" xlink:href="#H"/><use transform="matrix(0.05,0,0,0.05,34.95,0)" xlink:href="#I"/><use transform="matrix(0.05,0,0,0.05,40.900000000000006,0)" xlink:href="#J"/><use transform="matrix(0.05,0,0,0.05,50.900000000000006,0)" xlink:href="#F"/><use transform="matrix(0.05,0,0,0.05,60.900000000000006,0)" xlink:href="#K"/><use transform="matrix(0.05,0,0,0.05,75.85000000000001,0)" xlink:href="#L"/><use transform="matrix(0.05,0,0,0.05,85.85000000000001,0)" xlink:href="#F"/><use transform="matrix(0.05,0,0,0.05,95.85000000000001,0)" xlink:href="#M"/></g><path d="M135-143c-3-34-86-38-87 0 15 53 115 12 119 90S17 21 10-45l28-5c4 36 97 45 98 0-10-56-113-15-118-90-4-57 82-63 122-42 12 7 21 19 24 35" id="N"/><path d="M84 4C-5 8 30-112 23-190h32v120c0 31 7 50 39 49 72-2 45-101 50-169h31l1 190h-30c-1-10 1-25-2-33-11 22-28 36-60 37" id="O"/><path d="M141-36C126-15 110 5 73 4 37 3 15-17 15-53c-1-64 63-63 125-63 3-35-9-54-41-54-24 1-41 7-42 31l-33-3c5-37 33-52 76-52 45 0 72 20 72 64v82c-1 20 7 32 28 27v20c-31 9-61-2-59-35zM48-53c0 20 12 33 32 33 41-3 63-29 60-74-43 2-92-5-92 41" id="P"/><path d="M24 0v-261h32V0H24" id="Q"/><g id="c"><use transform="matrix(0.05,0,0,0.05,0,0)" xlink:href="#D"/><use transform="matrix(0.05,0,0,0.05,11.65,0)" xlink:href="#H"/><use transform="matrix(0.05,0,0,0.05,15.600000000000001,0)" xlink:href="#N"/><use transform="matrix(0.05,0,0,0.05,24.6,0)" xlink:href="#O"/><use transform="matrix(0.05,0,0,0.05,34.6,0)" xlink:href="#P"/><use transform="matrix(0.05,0,0,0.05,44.6,0)" xlink:href="#Q"/></g><path d="M85-194c31 0 48 13 60 33l-1-100h32l1 261h-30c-2-10 0-23-3-31C134-8 116 4 85 4 32 4 16-35 15-94c0-66 23-100 70-100zm9 24c-40 0-46 34-46 75 0 40 6 74 45 74 42 0 51-32 51-76 0-42-9-74-50-73" id="R"/><g id="d"><use transform="matrix(0.05,0,0,0.05,0,0)" xlink:href="#C"/><use transform="matrix(0.05,0,0,0.05,12,0)" xlink:href="#M"/><use transform="matrix(0.05,0,0,0.05,17,0)" xlink:href="#O"/><use transform="matrix(0.05,0,0,0.05,27,0)" xlink:href="#R"/><use transform="matrix(0.05,0,0,0.05,37,0)" xlink:href="#H"/><use transform="matrix(0.05,0,0,0.05,40.95,0)" xlink:href="#J"/></g><path d="M240 0l2-218c-23 76-54 145-80 218h-23L58-218 59 0H30v-248h44l77 211c21-75 51-140 76-211h43V0h-30" id="S"/><g id="e"><use transform="matrix(0.05,0,0,0.05,0,0)" xlink:href="#S"/><use transform="matrix(0.05,0,0,0.05,14.950000000000001,0)" xlink:href="#C"/></g><path d="M127-220V0H93v-220H8v-28h204v28h-85" id="T"/><g id="f"><use transform="matrix(0.05,0,0,0.05,0,0)" xlink:href="#T"/><use transform="matrix(0.05,0,0,0.05,8.950000000000001,0)" xlink:href="#L"/><use transform="matrix(0.05,0,0,0.05,18.950000000000003,0)" xlink:href="#P"/><use transform="matrix(0.05,0,0,0.05,28.950000000000003,0)" xlink:href="#K"/></g><path d="M63-220v92h138v28H63V0H30v-248h175v28H63" id="U"/><g id="g"><use transform="matrix(0.05,0,0,0.05,0,0)" xlink:href="#U"/><use transform="matrix(0.05,0,0,0.05,10.950000000000001,0)" xlink:href="#J"/><use transform="matrix(0.05,0,0,0.05,20.950000000000003,0)" xlink:href="#O"/><use transform="matrix(0.05,0,0,0.05,30.950000000000003,0)" xlink:href="#F"/><use transform="matrix(0.05,0,0,0.05,40.95,0)" xlink:href="#R"/><use transform="matrix(0.05,0,0,0.05,50.95,0)" xlink:href="#P"/><use transform="matrix(0.05,0,0,0.05,60.95,0)" xlink:href="#M"/><use transform="matrix(0.05,0,0,0.05,65.95,0)" xlink:href="#H"/><use transform="matrix(0.05,0,0,0.05,69.9,0)" xlink:href="#J"/><use transform="matrix(0.05,0,0,0.05,79.9,0)" xlink:href="#F"/></g><g id="h"><use transform="matrix(0.05,0,0,0.05,0,0)" xlink:href="#C"/><use transform="matrix(0.05,0,0,0.05,12,0)" xlink:href="#L"/><use transform="matrix(0.05,0,0,0.05,22,0)" xlink:href="#I"/><use transform="matrix(0.05,0,0,0.05,27.950000000000003,0)" xlink:href="#G"/><use transform="matrix(0.05,0,0,0.05,36.95,0)" xlink:href="#L"/><use transform="matrix(0.05,0,0,0.05,46.95,0)" xlink:href="#I"/></g><path d="M205 0l-28-72H64L36 0H1l101-248h38L239 0h-34zm-38-99l-47-123c-12 45-31 82-46 123h93" id="V"/><path d="M266 0h-40l-56-210L115 0H75L2-248h35L96-30l15-64 43-154h32l59 218 59-218h35" id="W"/><path d="M30-248c87 1 191-15 191 75 0 78-77 80-158 76V0H30v-248zm33 125c57 0 124 11 124-50 0-59-68-47-124-48v98" id="X"/><g id="i"><use transform="matrix(0.05,0,0,0.05,0,0)" xlink:href="#V"/><use transform="matrix(0.05,0,0,0.05,11.35,0)" xlink:href="#W"/><use transform="matrix(0.05,0,0,0.05,28.299999999999997,0)" xlink:href="#C"/><use transform="matrix(0.05,0,0,0.05,40.3,0)" xlink:href="#S"/><use transform="matrix(0.05,0,0,0.05,55.25,0)" xlink:href="#V"/><use transform="matrix(0.05,0,0,0.05,67.25,0)" xlink:href="#X"/></g><path d="M18-100v-36l175-74v27L42-118l151 64v27" id="Y"/><path d="M96-169c-40 0-48 33-48 73s9 75 48 75c24 0 41-14 43-38l32 2c-6 37-31 61-74 61-59 0-76-41-82-99-10-93 101-131 147-64 4 7 5 14 7 22l-32 3c-4-21-16-35-41-35" id="Z"/><path d="M115-194c55 1 70 41 70 98S169 2 115 4C84 4 66-9 55-30l1 105H24l-1-265h31l2 30c10-21 28-34 59-34zm-8 174c40 0 45-34 45-75s-6-73-45-74c-42 0-51 32-51 76 0 43 10 73 51 73" id="aa"/><path d="M18-27v-27l151-64-151-65v-27l175 74v36" id="ab"/><g id="j"><use transform="matrix(0.05,0,0,0.05,0,0)" xlink:href="#Y"/><use transform="matrix(0.05,0,0,0.05,10.5,0)" xlink:href="#Y"/><use transform="matrix(0.05,0,0,0.05,21,0)" xlink:href="#Z"/><use transform="matrix(0.05,0,0,0.05,30,0)" xlink:href="#J"/><use transform="matrix(0.05,0,0,0.05,40,0)" xlink:href="#K"/><use transform="matrix(0.05,0,0,0.05,54.95,0)" xlink:href="#aa"/><use transform="matrix(0.05,0,0,0.05,64.95,0)" xlink:href="#J"/><use transform="matrix(0.05,0,0,0.05,74.95,0)" xlink:href="#F"/><use transform="matrix(0.05,0,0,0.05,84.95,0)" xlink:href="#L"/><use transform="matrix(0.05,0,0,0.05,94.95,0)" xlink:href="#F"/><use transform="matrix(0.05,0,0,0.05,104.95,0)" xlink:href="#M"/><use transform="matrix(0.05,0,0,0.05,109.95,0)" xlink:href="#ab"/><use transform="matrix(0.05,0,0,0.05,120.45,0)" xlink:href="#ab"/></g><g id="k"><use transform="matrix(0.05,0,0,0.05,0,0)" xlink:href="#V"/><use transform="matrix(0.05,0,0,0.05,12,0)" xlink:href="#F"/><use transform="matrix(0.05,0,0,0.05,22,0)" xlink:href="#F"/><use transform="matrix(0.05,0,0,0.05,32,0)" xlink:href="#J"/><use transform="matrix(0.05,0,0,0.05,42,0)" xlink:href="#M"/><use transform="matrix(0.05,0,0,0.05,47,0)" xlink:href="#P"/><use transform="matrix(0.05,0,0,0.05,57,0)" xlink:href="#M"/><use transform="matrix(0.05,0,0,0.05,62,0)" xlink:href="#H"/><use transform="matrix(0.05,0,0,0.05,65.95,0)" xlink:href="#J"/><use transform="matrix(0.05,0,0,0.05,75.95,0)" xlink:href="#F"/></g><g id="l"><use transform="matrix(0.05,0,0,0.05,0,0)" xlink:href="#V"/><use transform="matrix(0.05,0,0,0.05,12,0)" xlink:href="#X"/><use transform="matrix(0.05,0,0,0.05,24,0)" xlink:href="#B"/></g><path d="M177-190C167-65 218 103 67 71c-23-6-38-20-44-43l32-5c15 47 100 32 89-28v-30C133-14 115 1 83 1 29 1 15-40 15-95c0-56 16-97 71-98 29-1 48 16 59 35 1-10 0-23 2-32h30zM94-22c36 0 50-32 50-73 0-42-14-75-50-75-39 0-46 34-46 75s6 73 46 73" id="ac"/><g id="m"><use transform="matrix(0.05,0,0,0.05,0,0)" xlink:href="#S"/><use transform="matrix(0.05,0,0,0.05,14.950000000000001,0)" xlink:href="#H"/><use transform="matrix(0.05,0,0,0.05,18.900000000000002,0)" xlink:href="#ac"/><use transform="matrix(0.05,0,0,0.05,28.900000000000002,0)" xlink:href="#I"/><use transform="matrix(0.05,0,0,0.05,34.85,0)" xlink:href="#P"/><use transform="matrix(0.05,0,0,0.05,44.85,0)" xlink:href="#M"/><use transform="matrix(0.05,0,0,0.05,49.85,0)" xlink:href="#H"/><use transform="matrix(0.05,0,0,0.05,53.800000000000004,0)" xlink:href="#J"/><use transform="matrix(0.05,0,0,0.05,63.800000000000004,0)" xlink:href="#F"/></g><g id="n"><use transform="matrix(0.05,0,0,0.05,0,0)" xlink:href="#S"/><use transform="matrix(0.05,0,0,0.05,14.950000000000001,0)" xlink:href="#P"/><use transform="matrix(0.05,0,0,0.05,24.950000000000003,0)" xlink:href="#F"/><use transform="matrix(0.05,0,0,0.05,34.95,0)" xlink:href="#P"/><use transform="matrix(0.05,0,0,0.05,44.95,0)" xlink:href="#ac"/><use transform="matrix(0.05,0,0,0.05,54.95,0)" xlink:href="#L"/><use transform="matrix(0.05,0,0,0.05,64.95,0)" xlink:href="#K"/><use transform="matrix(0.05,0,0,0.05,79.9,0)" xlink:href="#L"/><use transform="matrix(0.05,0,0,0.05,89.9,0)" xlink:href="#F"/><use transform="matrix(0.05,0,0,0.05,99.9,0)" xlink:href="#M"/></g><g id="o"><use transform="matrix(0.05,0,0,0.05,0,0)" xlink:href="#V"/><use transform="matrix(0.05,0,0,0.05,11.35,0)" xlink:href="#W"/><use transform="matrix(0.05,0,0,0.05,28.299999999999997,0)" xlink:href="#C"/><use transform="matrix(0.05,0,0,0.05,40.3,0)" xlink:href="#S"/><use transform="matrix(0.05,0,0,0.05,55.25,0)" xlink:href="#V"/><use transform="matrix(0.05,0,0,0.05,67.25,0)" xlink:href="#X"/></g><path d="M141 0L90-78 38 0H4l68-98-65-92h35l48 74 47-74h35l-64 92 68 98h-35" id="ad"/><g id="p"><use transform="matrix(0.05,0,0,0.05,0,0)" xlink:href="#E"/><use transform="matrix(0.05,0,0,0.05,12,0)" xlink:href="#ad"/><use transform="matrix(0.05,0,0,0.05,21,0)" xlink:href="#M"/><use transform="matrix(0.05,0,0,0.05,26,0)" xlink:href="#L"/><use transform="matrix(0.05,0,0,0.05,36,0)" xlink:href="#F"/><use transform="matrix(0.05,0,0,0.05,46,0)" xlink:href="#N"/><use transform="matrix(0.05,0,0,0.05,55,0)" xlink:href="#H"/><use transform="matrix(0.05,0,0,0.05,58.95,0)" xlink:href="#J"/><use transform="matrix(0.05,0,0,0.05,68.95,0)" xlink:href="#F"/></g><g id="q"><use transform="matrix(0.05,0,0,0.05,0,0)" xlink:href="#T"/><use transform="matrix(0.05,0,0,0.05,10.950000000000001,0)" xlink:href="#U"/><use transform="matrix(0.05,0,0,0.05,21.900000000000002,0)" xlink:href="#C"/></g><path d="M212-179c-10-28-35-45-73-45-59 0-87 40-87 99 0 60 29 101 89 101 43 0 62-24 78-52l27 14C228-24 195 4 139 4 59 4 22-46 18-125c-6-104 99-153 187-111 19 9 31 26 39 46" id="ae"/><g id="r"><use transform="matrix(0.05,0,0,0.05,0,0)" xlink:href="#D"/><use transform="matrix(0.05,0,0,0.05,12,0)" xlink:href="#ae"/><use transform="matrix(0.05,0,0,0.05,24.950000000000003,0)" xlink:href="#C"/></g><path d="M233-177c-1 41-23 64-60 70L243 0h-38l-65-103H63V0H30v-248c88 3 205-21 203 71zM63-129c60-2 137 13 137-47 0-61-80-42-137-45v92" id="af"/><g id="s"><use transform="matrix(0.05,0,0,0.05,0,0)" xlink:href="#af"/><use transform="matrix(0.05,0,0,0.05,12.950000000000001,0)" xlink:href="#E"/><use transform="matrix(0.05,0,0,0.05,24.950000000000003,0)" xlink:href="#C"/><use transform="matrix(0.05,0,0,0.05,36.95,0)" xlink:href="#T"/></g><path d="M24-231v-30h32v30H24zM-9 49c24 4 33-6 33-30v-209h32V24c2 40-23 58-65 49V49" id="ag"/><g id="t"><use transform="matrix(0.05,0,0,0.05,0,0)" xlink:href="#X"/><use transform="matrix(0.05,0,0,0.05,12,0)" xlink:href="#I"/><use transform="matrix(0.05,0,0,0.05,17.95,0)" xlink:href="#J"/><use transform="matrix(0.05,0,0,0.05,27.950000000000003,0)" xlink:href="#ag"/><use transform="matrix(0.05,0,0,0.05,31.899999999999995,0)" xlink:href="#L"/><use transform="matrix(0.05,0,0,0.05,41.9,0)" xlink:href="#Z"/><use transform="matrix(0.05,0,0,0.05,50.9,0)" xlink:href="#M"/></g><g id="u"><use transform="matrix(0.05,0,0,0.05,0,0)" xlink:href="#S"/><use transform="matrix(0.05,0,0,0.05,14.950000000000001,0)" xlink:href="#P"/><use transform="matrix(0.05,0,0,0.05,24.950000000000003,0)" xlink:href="#F"/><use transform="matrix(0.05,0,0,0.05,34.95,0)" xlink:href="#P"/><use transform="matrix(0.05,0,0,0.05,44.95,0)" xlink:href="#ac"/><use transform="matrix(0.05,0,0,0.05,54.95,0)" xlink:href="#L"/><use transform="matrix(0.05,0,0,0.05,64.95,0)" xlink:href="#K"/><use transform="matrix(0.05,0,0,0.05,79.9,0)" xlink:href="#L"/><use transform="matrix(0.05,0,0,0.05,89.9,0)" xlink:href="#F"/><use transform="matrix(0.05,0,0,0.05,99.9,0)" xlink:href="#M"/></g><g id="v"><use transform="matrix(0.05,0,0,0.05,0,0)" xlink:href="#V"/><use transform="matrix(0.05,0,0,0.05,12,0)" xlink:href="#Z"/><use transform="matrix(0.05,0,0,0.05,21,0)" xlink:href="#M"/><use transform="matrix(0.05,0,0,0.05,26,0)" xlink:href="#H"/><use transform="matrix(0.05,0,0,0.05,29.950000000000003,0)" xlink:href="#G"/><use transform="matrix(0.05,0,0,0.05,38.95,0)" xlink:href="#L"/></g><path d="M30-248c118-7 216 8 213 122C240-48 200 0 122 0H30v-248zM63-27c89 8 146-16 146-99s-60-101-146-95v194" id="ah"/><path d="M179-190L93 31C79 59 56 82 12 73V49c39 6 53-20 64-50L1-190h34L92-34l54-156h33" id="ai"/><g id="w"><use transform="matrix(0.05,0,0,0.05,0,0)" xlink:href="#ah"/><use transform="matrix(0.05,0,0,0.05,12.950000000000001,0)" xlink:href="#H"/><use transform="matrix(0.05,0,0,0.05,16.900000000000002,0)" xlink:href="#I"/><use transform="matrix(0.05,0,0,0.05,22.85,0)" xlink:href="#L"/><use transform="matrix(0.05,0,0,0.05,32.85,0)" xlink:href="#Z"/><use transform="matrix(0.05,0,0,0.05,41.85,0)" xlink:href="#M"/><use transform="matrix(0.05,0,0,0.05,46.85,0)" xlink:href="#J"/><use transform="matrix(0.05,0,0,0.05,56.85,0)" xlink:href="#I"/><use transform="matrix(0.05,0,0,0.05,62.800000000000004,0)" xlink:href="#ai"/></g><path d="M194 0L95-120 63-95V0H30v-248h33v124l119-124h40L117-140 236 0h-42" id="aj"/><path d="M206 0h-36l-40-164L89 0H53L-1-190h32L70-26l43-164h34l41 164 42-164h31" id="ak"/><path d="M115-194c53 0 69 39 70 98 0 66-23 100-70 100C84 3 66-7 56-30L54 0H23l1-261h32v101c10-23 28-34 59-34zm-8 174c40 0 45-34 45-75 0-40-5-75-45-74-42 0-51 32-51 76 0 43 10 73 51 73" id="al"/><g id="x"><use transform="matrix(0.05,0,0,0.05,0,0)" xlink:href="#aj"/><use transform="matrix(0.05,0,0,0.05,12,0)" xlink:href="#F"/><use transform="matrix(0.05,0,0,0.05,22,0)" xlink:href="#J"/><use transform="matrix(0.05,0,0,0.05,32,0)" xlink:href="#ak"/><use transform="matrix(0.05,0,0,0.05,44.95,0)" xlink:href="#Q"/><use transform="matrix(0.05,0,0,0.05,48.900000000000006,0)" xlink:href="#L"/><use transform="matrix(0.05,0,0,0.05,58.900000000000006,0)" xlink:href="#R"/><use transform="matrix(0.05,0,0,0.05,68.9,0)" xlink:href="#ac"/><use transform="matrix(0.05,0,0,0.05,78.9,0)" xlink:href="#L"/><use transform="matrix(0.05,0,0,0.05,88.9,0)" xlink:href="#al"/><use transform="matrix(0.05,0,0,0.05,98.9,0)" xlink:href="#P"/><use transform="matrix(0.05,0,0,0.05,108.9,0)" xlink:href="#N"/><use transform="matrix(0.05,0,0,0.05,117.9,0)" xlink:href="#L"/></g><path d="M106-169C34-169 62-67 57 0H25v-261h32l-1 103c12-21 28-36 61-36 89 0 53 116 60 194h-32v-121c2-32-8-49-39-48" id="am"/><g id="y"><use transform="matrix(0.05,0,0,0.05,0,0)" xlink:href="#V"/><use transform="matrix(0.05,0,0,0.05,12,0)" xlink:href="#O"/><use transform="matrix(0.05,0,0,0.05,22,0)" xlink:href="#M"/><use transform="matrix(0.05,0,0,0.05,27,0)" xlink:href="#am"/></g><g id="z"><use transform="matrix(0.05,0,0,0.05,0,0)" xlink:href="#af"/><use transform="matrix(0.05,0,0,0.05,12.950000000000001,0)" xlink:href="#E"/><use transform="matrix(0.05,0,0,0.05,24.950000000000003,0)" xlink:href="#C"/><use transform="matrix(0.05,0,0,0.05,36.95,0)" xlink:href="#T"/></g><g id="A"><use transform="matrix(0.05,0,0,0.05,0,0)" xlink:href="#V"/><use transform="matrix(0.05,0,0,0.05,12,0)" xlink:href="#X"/><use transform="matrix(0.05,0,0,0.05,24,0)" xlink:href="#B"/></g></defs></g></svg>